G04 #@! TF.GenerationSoftware,KiCad,Pcbnew,(5.1.5)-3*
G04 #@! TF.CreationDate,2020-05-01T19:28:23-04:00*
G04 #@! TF.ProjectId,BookerBoard,426f6f6b-6572-4426-9f61-72642e6b6963,rev?*
G04 #@! TF.SameCoordinates,Original*
G04 #@! TF.FileFunction,Copper,L1,Top*
G04 #@! TF.FilePolarity,Positive*
%FSLAX46Y46*%
G04 Gerber Fmt 4.6, Leading zero omitted, Abs format (unit mm)*
G04 Created by KiCad (PCBNEW (5.1.5)-3) date 2020-05-01 19:28:23*
%MOMM*%
%LPD*%
G04 APERTURE LIST*
%ADD10C,1.600000*%
%ADD11C,0.100000*%
%ADD12C,1.600000*%
%ADD13R,1.600000X1.600000*%
%ADD14C,2.250000*%
%ADD15C,2.250000*%
%ADD16C,1.998980*%
%ADD17R,1.998980X1.998980*%
%ADD18C,0.250000*%
G04 APERTURE END LIST*
D10*
X72856904Y-107781904D02*
X72856904Y-107781904D01*
G04 #@! TA.AperFunction,ComponentPad*
D11*
G36*
X66337379Y-102393750D02*
G01*
X67468750Y-101262379D01*
X68600121Y-102393750D01*
X67468750Y-103525121D01*
X66337379Y-102393750D01*
G37*
G04 #@! TD.AperFunction*
D12*
X73501250Y-40005000D03*
X73501250Y-42545000D03*
X73501250Y-45085000D03*
X73501250Y-47625000D03*
X73501250Y-50165000D03*
X73501250Y-52705000D03*
X73501250Y-55245000D03*
X73501250Y-57785000D03*
X73501250Y-60325000D03*
X73501250Y-62865000D03*
X73501250Y-65405000D03*
X73501250Y-67945000D03*
X58261250Y-67945000D03*
X58261250Y-65405000D03*
X58261250Y-62865000D03*
X58261250Y-60325000D03*
X58261250Y-57785000D03*
X58261250Y-55245000D03*
X58261250Y-52705000D03*
X58261250Y-50165000D03*
X58261250Y-47625000D03*
X58261250Y-45085000D03*
X58261250Y-42545000D03*
D13*
X58261250Y-40005000D03*
D14*
X126087500Y-98393750D03*
D15*
X124777500Y-99853750D02*
X126087502Y-98393750D01*
D14*
X131127500Y-97313750D03*
D15*
X131087500Y-97893750D02*
X131127500Y-97313750D01*
D14*
X126087500Y-79343750D03*
D15*
X124777500Y-80803750D02*
X126087502Y-79343750D01*
D14*
X131127500Y-78263750D03*
D15*
X131087500Y-78843750D02*
X131127500Y-78263750D01*
D14*
X126087500Y-60293750D03*
D15*
X124777500Y-61753750D02*
X126087502Y-60293750D01*
D14*
X131127500Y-59213750D03*
D15*
X131087500Y-59793750D02*
X131127500Y-59213750D01*
D14*
X126087500Y-41243750D03*
D15*
X124777500Y-42703750D02*
X126087502Y-41243750D01*
D14*
X131127500Y-40163750D03*
D15*
X131087500Y-40743750D02*
X131127500Y-40163750D01*
D14*
X107037500Y-98393750D03*
D15*
X105727500Y-99853750D02*
X107037502Y-98393750D01*
D14*
X112077500Y-97313750D03*
D15*
X112037500Y-97893750D02*
X112077500Y-97313750D01*
D14*
X107037500Y-79343750D03*
D15*
X105727500Y-80803750D02*
X107037502Y-79343750D01*
D14*
X112077500Y-78263750D03*
D15*
X112037500Y-78843750D02*
X112077500Y-78263750D01*
D14*
X107037500Y-60293750D03*
D15*
X105727500Y-61753750D02*
X107037502Y-60293750D01*
D14*
X112077500Y-59213750D03*
D15*
X112037500Y-59793750D02*
X112077500Y-59213750D01*
D14*
X107037500Y-41243750D03*
D15*
X105727500Y-42703750D02*
X107037502Y-41243750D01*
D14*
X112077500Y-40163750D03*
D15*
X112037500Y-40743750D02*
X112077500Y-40163750D01*
D14*
X87987500Y-98393750D03*
D15*
X86677500Y-99853750D02*
X87987502Y-98393750D01*
D14*
X93027500Y-97313750D03*
D15*
X92987500Y-97893750D02*
X93027500Y-97313750D01*
D14*
X87987500Y-79343750D03*
D15*
X86677500Y-80803750D02*
X87987502Y-79343750D01*
D14*
X93027500Y-78263750D03*
D15*
X92987500Y-78843750D02*
X93027500Y-78263750D01*
D14*
X87987500Y-60293750D03*
D15*
X86677500Y-61753750D02*
X87987502Y-60293750D01*
D14*
X93027500Y-59213750D03*
D15*
X92987500Y-59793750D02*
X93027500Y-59213750D01*
D14*
X87987500Y-41243750D03*
D15*
X86677500Y-42703750D02*
X87987502Y-41243750D01*
D14*
X93027500Y-40163750D03*
D15*
X92987500Y-40743750D02*
X93027500Y-40163750D01*
D16*
X77787500Y-41275000D03*
D17*
X77787500Y-45085000D03*
D10*
X72856904Y-98256904D02*
X72856904Y-98256904D01*
G04 #@! TA.AperFunction,ComponentPad*
D11*
G36*
X66337379Y-92868750D02*
G01*
X67468750Y-91737379D01*
X68600121Y-92868750D01*
X67468750Y-94000121D01*
X66337379Y-92868750D01*
G37*
G04 #@! TD.AperFunction*
D10*
X72856904Y-88731904D02*
X72856904Y-88731904D01*
G04 #@! TA.AperFunction,ComponentPad*
D11*
G36*
X66337379Y-83343750D02*
G01*
X67468750Y-82212379D01*
X68600121Y-83343750D01*
X67468750Y-84475121D01*
X66337379Y-83343750D01*
G37*
G04 #@! TD.AperFunction*
D10*
X72856904Y-79206904D02*
X72856904Y-79206904D01*
G04 #@! TA.AperFunction,ComponentPad*
D11*
G36*
X66337379Y-73818750D02*
G01*
X67468750Y-72687379D01*
X68600121Y-73818750D01*
X67468750Y-74950121D01*
X66337379Y-73818750D01*
G37*
G04 #@! TD.AperFunction*
D10*
X68888154Y-107781904D02*
X68888154Y-107781904D01*
G04 #@! TA.AperFunction,ComponentPad*
D11*
G36*
X62368629Y-102393750D02*
G01*
X63500000Y-101262379D01*
X64631371Y-102393750D01*
X63500000Y-103525121D01*
X62368629Y-102393750D01*
G37*
G04 #@! TD.AperFunction*
D10*
X68888154Y-98256904D02*
X68888154Y-98256904D01*
G04 #@! TA.AperFunction,ComponentPad*
D11*
G36*
X62368629Y-92868750D02*
G01*
X63500000Y-91737379D01*
X64631371Y-92868750D01*
X63500000Y-94000121D01*
X62368629Y-92868750D01*
G37*
G04 #@! TD.AperFunction*
D10*
X68888154Y-88731904D02*
X68888154Y-88731904D01*
G04 #@! TA.AperFunction,ComponentPad*
D11*
G36*
X62368629Y-83343750D02*
G01*
X63500000Y-82212379D01*
X64631371Y-83343750D01*
X63500000Y-84475121D01*
X62368629Y-83343750D01*
G37*
G04 #@! TD.AperFunction*
D10*
X68888154Y-79206904D02*
X68888154Y-79206904D01*
G04 #@! TA.AperFunction,ComponentPad*
D11*
G36*
X62368629Y-73818750D02*
G01*
X63500000Y-72687379D01*
X64631371Y-73818750D01*
X63500000Y-74950121D01*
X62368629Y-73818750D01*
G37*
G04 #@! TD.AperFunction*
D10*
X64919404Y-107781904D02*
X64919404Y-107781904D01*
G04 #@! TA.AperFunction,ComponentPad*
D11*
G36*
X58399879Y-102393750D02*
G01*
X59531250Y-101262379D01*
X60662621Y-102393750D01*
X59531250Y-103525121D01*
X58399879Y-102393750D01*
G37*
G04 #@! TD.AperFunction*
D10*
X64919404Y-98256904D02*
X64919404Y-98256904D01*
G04 #@! TA.AperFunction,ComponentPad*
D11*
G36*
X58399879Y-92868750D02*
G01*
X59531250Y-91737379D01*
X60662621Y-92868750D01*
X59531250Y-94000121D01*
X58399879Y-92868750D01*
G37*
G04 #@! TD.AperFunction*
D10*
X64919404Y-88731904D02*
X64919404Y-88731904D01*
G04 #@! TA.AperFunction,ComponentPad*
D11*
G36*
X58399879Y-83343750D02*
G01*
X59531250Y-82212379D01*
X60662621Y-83343750D01*
X59531250Y-84475121D01*
X58399879Y-83343750D01*
G37*
G04 #@! TD.AperFunction*
G04 #@! TA.AperFunction,ComponentPad*
G36*
X58399879Y-73818750D02*
G01*
X59531250Y-72687379D01*
X60662621Y-73818750D01*
X59531250Y-74950121D01*
X58399879Y-73818750D01*
G37*
G04 #@! TD.AperFunction*
D10*
X64919404Y-79206904D02*
X64919404Y-79206904D01*
D18*
X93662500Y-50006250D02*
X93662500Y-41418750D01*
X93662500Y-41418750D02*
X92987500Y-40743750D01*
X64919404Y-78749346D02*
X93662500Y-50006250D01*
X59531250Y-73818750D02*
X63500000Y-73818750D01*
X67468750Y-73818750D02*
X63500000Y-73818750D01*
X57467500Y-67945000D02*
X58261250Y-67945000D01*
X56356250Y-69056250D02*
X57467500Y-67945000D01*
X59531250Y-73818750D02*
X57943750Y-73818750D01*
X56356250Y-72231250D02*
X56356250Y-69056250D01*
X57943750Y-73818750D02*
X56356250Y-72231250D01*
X93662500Y-60468750D02*
X92987500Y-59793750D01*
X65255596Y-88731904D02*
X84137500Y-69850000D01*
X91281250Y-69850000D02*
X93662500Y-67468750D01*
X84137500Y-69850000D02*
X91281250Y-69850000D01*
X93662500Y-67468750D02*
X93662500Y-60468750D01*
X59531250Y-83343750D02*
X63500000Y-83343750D01*
X63500000Y-83343750D02*
X67468750Y-83343750D01*
X57626250Y-65405000D02*
X58261250Y-65405000D01*
X55562500Y-67468750D02*
X57626250Y-65405000D01*
X59531250Y-83343750D02*
X55562500Y-79375000D01*
X55562500Y-79375000D02*
X55562500Y-67468750D01*
X65255596Y-98256904D02*
X64919404Y-98256904D01*
X93662500Y-79518750D02*
X93662500Y-85725000D01*
X91281250Y-88106250D02*
X75406250Y-88106250D01*
X92987500Y-78843750D02*
X93662500Y-79518750D01*
X93662500Y-85725000D02*
X91281250Y-88106250D01*
X75406250Y-88106250D02*
X65255596Y-98256904D01*
X57461251Y-63664999D02*
X58261250Y-62865000D01*
X54768750Y-65881250D02*
X57150000Y-63500000D01*
X57150000Y-63500000D02*
X57314999Y-63664999D01*
X57314999Y-63664999D02*
X57461251Y-63664999D01*
X59531250Y-92868750D02*
X54768750Y-88106250D01*
X54768750Y-88106250D02*
X54768750Y-65881250D01*
X59531250Y-92868750D02*
X63500000Y-92868750D01*
X67468750Y-92868750D02*
X63500000Y-92868750D01*
X93662500Y-98568750D02*
X92987500Y-97893750D01*
X93662500Y-104775000D02*
X93662500Y-98568750D01*
X82550000Y-103187500D02*
X86518750Y-107156250D01*
X86518750Y-107156250D02*
X91281250Y-107156250D01*
X64919404Y-107781904D02*
X65255596Y-107781904D01*
X65255596Y-107781904D02*
X75406250Y-97631250D01*
X91281250Y-107156250D02*
X93662500Y-104775000D01*
X75406250Y-97631250D02*
X79375000Y-97631250D01*
X79375000Y-97631250D02*
X82550000Y-100806250D01*
X82550000Y-100806250D02*
X82550000Y-103187500D01*
X57943750Y-100806250D02*
X59531250Y-102393750D01*
X53975000Y-96837500D02*
X57943750Y-100806250D01*
X57461251Y-61124999D02*
X57156249Y-61124999D01*
X58261250Y-60325000D02*
X57461251Y-61124999D01*
X57156249Y-61124999D02*
X57150000Y-61118750D01*
X57150000Y-61118750D02*
X53975000Y-64293750D01*
X53975000Y-64293750D02*
X53975000Y-96837500D01*
X59531250Y-102393750D02*
X63500000Y-102393750D01*
X67468750Y-102393750D02*
X63500000Y-102393750D01*
X112712500Y-47625000D02*
X112712500Y-41418750D01*
X68888154Y-79206904D02*
X69850000Y-78245058D01*
X112712500Y-41418750D02*
X112037500Y-40743750D01*
X69850000Y-74612500D02*
X94456250Y-50006250D01*
X110331250Y-50006250D02*
X112712500Y-47625000D01*
X69850000Y-78245058D02*
X69850000Y-74612500D01*
X94456250Y-50006250D02*
X110331250Y-50006250D01*
X112712500Y-68262500D02*
X112712500Y-60468750D01*
X112712500Y-60468750D02*
X112037500Y-59793750D01*
X68888154Y-88731904D02*
X69850000Y-87770058D01*
X84137500Y-70643750D02*
X110331250Y-70643750D01*
X69850000Y-87770058D02*
X69850000Y-84931250D01*
X69850000Y-84931250D02*
X84137500Y-70643750D01*
X110331250Y-70643750D02*
X112712500Y-68262500D01*
X69850000Y-94456250D02*
X69850000Y-97295058D01*
X112712500Y-79518750D02*
X112712500Y-86518750D01*
X110331250Y-88900000D02*
X75406250Y-88900000D01*
X112037500Y-78843750D02*
X112712500Y-79518750D01*
X112712500Y-86518750D02*
X110331250Y-88900000D01*
X69850000Y-97295058D02*
X68888154Y-98256904D01*
X75406250Y-88900000D02*
X69850000Y-94456250D01*
X112712500Y-98568750D02*
X112712500Y-105568750D01*
X112037500Y-97893750D02*
X112712500Y-98568750D01*
X112712500Y-105568750D02*
X110331250Y-107950000D01*
X68888154Y-107781904D02*
X68888154Y-104943096D01*
X68888154Y-104943096D02*
X75406250Y-98425000D01*
X81756250Y-103187500D02*
X86518750Y-107950000D01*
X86518750Y-107950000D02*
X110331250Y-107950000D01*
X81756250Y-103187500D02*
X81756250Y-100806250D01*
X81756250Y-100806250D02*
X79375000Y-98425000D01*
X79375000Y-98425000D02*
X75406250Y-98425000D01*
X131762500Y-48418750D02*
X131762500Y-41418750D01*
X73025000Y-72231250D02*
X94456250Y-50800000D01*
X129381250Y-50800000D02*
X131762500Y-48418750D01*
X94456250Y-50800000D02*
X129381250Y-50800000D01*
X72856904Y-78075534D02*
X70643750Y-75862380D01*
X72856904Y-79206904D02*
X72856904Y-78075534D01*
X70643750Y-75862380D02*
X70643750Y-74612500D01*
X70643750Y-74612500D02*
X73025000Y-72231250D01*
X131762500Y-69056250D02*
X131762500Y-60468750D01*
X129381250Y-71437500D02*
X131762500Y-69056250D01*
X72856904Y-87600534D02*
X70643750Y-85387380D01*
X72856904Y-88731904D02*
X72856904Y-87600534D01*
X131762500Y-60468750D02*
X131087500Y-59793750D01*
X70643750Y-85387380D02*
X70643750Y-84931250D01*
X70643750Y-84931250D02*
X84137500Y-71437500D01*
X84137500Y-71437500D02*
X129381250Y-71437500D01*
X73025000Y-97631250D02*
X72856904Y-97799346D01*
X70643750Y-95250000D02*
X73025000Y-97631250D01*
X131762500Y-79518750D02*
X131762500Y-87312500D01*
X131087500Y-78843750D02*
X131762500Y-79518750D01*
X129381250Y-89693750D02*
X76200000Y-89693750D01*
X131762500Y-87312500D02*
X129381250Y-89693750D01*
X72856904Y-97799346D02*
X72856904Y-98256904D01*
X76200000Y-89693750D02*
X75406250Y-89693750D01*
X75406250Y-89693750D02*
X70643750Y-94456250D01*
X70643750Y-94456250D02*
X70643750Y-95250000D01*
X131762500Y-98568750D02*
X131087500Y-97893750D01*
X131762500Y-106362500D02*
X131762500Y-98568750D01*
X129381250Y-108743750D02*
X131762500Y-106362500D01*
X71725534Y-107781904D02*
X71437500Y-107493870D01*
X72856904Y-107781904D02*
X71725534Y-107781904D01*
X71437500Y-107493870D02*
X71437500Y-106362500D01*
X71437500Y-106362500D02*
X69850000Y-104775000D01*
X69850000Y-104775000D02*
X75406250Y-99218750D01*
X80962500Y-103187500D02*
X86518750Y-108743750D01*
X86518750Y-108743750D02*
X129381250Y-108743750D01*
X75406250Y-99218750D02*
X79375000Y-99218750D01*
X79375000Y-99218750D02*
X80962500Y-100806250D01*
X80962500Y-100806250D02*
X80962500Y-103187500D01*
X74930000Y-67945000D02*
X82550000Y-60325000D01*
X73501250Y-67945000D02*
X74930000Y-67945000D01*
X82550000Y-60325000D02*
X82550000Y-39687500D01*
X82550000Y-39687500D02*
X83343750Y-38893750D01*
X83343750Y-38893750D02*
X85725000Y-38893750D01*
X85725000Y-38893750D02*
X86518750Y-39687500D01*
X86518750Y-39775000D02*
X87987500Y-41243750D01*
X86518750Y-39687500D02*
X86518750Y-39775000D01*
X105568750Y-39775000D02*
X107037500Y-41243750D01*
X105568750Y-39687500D02*
X105568750Y-39775000D01*
X103981250Y-38100000D02*
X105568750Y-39687500D01*
X74612500Y-66516250D02*
X74612500Y-66675000D01*
X81756250Y-39687500D02*
X83343750Y-38100000D01*
X74612500Y-66675000D02*
X75406250Y-66675000D01*
X83343750Y-38100000D02*
X103981250Y-38100000D01*
X73501250Y-65405000D02*
X74612500Y-66516250D01*
X75406250Y-66675000D02*
X81756250Y-60325000D01*
X81756250Y-60325000D02*
X81756250Y-39687500D01*
X75723750Y-65087500D02*
X73501250Y-62865000D01*
X80962500Y-60325000D02*
X76200000Y-65087500D01*
X76200000Y-65087500D02*
X75723750Y-65087500D01*
X126087500Y-41156250D02*
X122237500Y-37306250D01*
X126087500Y-41243750D02*
X126087500Y-41156250D01*
X80962500Y-60325000D02*
X80962500Y-39687500D01*
X80962500Y-39687500D02*
X83343750Y-37306250D01*
X83343750Y-37306250D02*
X122237500Y-37306250D01*
M02*
