M48
; DRILL file {KiCad (5.1.5)-3} date 5/1/2020 7:28:25 PM
; FORMAT={-:-/ absolute / inch / decimal}
; #@! TF.CreationDate,2020-05-01T19:28:25-04:00
; #@! TF.GenerationSoftware,Kicad,Pcbnew,(5.1.5)-3
; #@! TF.FileFunction,NonPlated,1,2,NPTH
FMAT,2
INCH
T1C0.0689
T2C0.0866
T3C0.1570
%
G90
G05
T1
X4.8625Y-4.0312
X5.2625Y-4.0312
X4.8625Y-1.7812
X5.2625Y-1.7812
X3.3625Y-2.5312
X3.7625Y-2.5312
X3.3625Y-4.0312
X3.7625Y-4.0312
X3.3625Y-1.7812
X3.7625Y-1.7812
X3.3625Y-3.2812
X3.7625Y-3.2812
X4.1125Y-1.7812
X4.5125Y-1.7812
X4.1125Y-4.0312
X4.5125Y-4.0312
X4.1125Y-2.5312
X4.5125Y-2.5312
X4.8625Y-3.2812
X5.2625Y-3.2812
X4.1125Y-3.2812
X4.5125Y-3.2812
X4.8625Y-2.5312
X5.2625Y-2.5312
T2
X9.3125Y-1.5312
X5.9062Y-1.5312
X9.3125Y-4.3125
X5.5Y-1.5312
X5.9062Y-4.3125
X5.5Y-4.3125
X2.0938Y-4.3125
X2.0938Y-1.5312
T3
X5.0625Y-2.5312
X5.0625Y-4.0312
X5.0625Y-1.7812
X3.5625Y-2.5312
X3.5625Y-4.0312
X3.5625Y-1.7812
X3.5625Y-3.2812
X4.3125Y-1.7812
X4.3125Y-4.0312
X4.3125Y-2.5312
X5.0625Y-3.2812
X4.3125Y-3.2812
T0
M30
