M48
; DRILL file {KiCad (5.1.5)-3} date 5/1/2020 7:28:25 PM
; FORMAT={-:-/ absolute / inch / decimal}
; #@! TF.CreationDate,2020-05-01T19:28:25-04:00
; #@! TF.GenerationSoftware,Kicad,Pcbnew,(5.1.5)-3
; #@! TF.FileFunction,Plated,1,2,PTH
FMAT,2
INCH
T1C0.0315
T2C0.0315
T3C0.0433
T4C0.0579
%
G90
G05
T1
X2.8684Y-4.2434
X2.8684Y-3.4934
X2.5Y-3.6562
X2.7121Y-3.8684
X2.6562Y-2.9062
X2.8684Y-3.1184
X2.3438Y-2.9062
X2.5559Y-3.1184
X2.6562Y-3.6562
X2.8684Y-3.8684
X2.3438Y-3.2812
X2.5559Y-3.4934
X2.6562Y-4.0312
X2.3438Y-4.0312
X2.5559Y-4.2434
X2.5Y-2.9062
X2.7121Y-3.1184
X2.3438Y-3.6562
X2.5559Y-3.8684
X2.5Y-3.2812
X2.7121Y-3.4934
X2.5Y-4.0312
X2.7121Y-4.2434
X2.6562Y-3.2812
T2
X3.0625Y-1.625
X3.0625Y-1.775
T3
X2.2937Y-1.575
X2.2937Y-1.675
X2.2937Y-1.775
X2.2937Y-1.875
X2.2937Y-1.975
X2.2937Y-2.075
X2.2937Y-2.175
X2.2937Y-2.275
X2.2937Y-2.375
X2.2937Y-2.475
X2.2937Y-2.575
X2.2937Y-2.675
X2.8937Y-1.575
X2.8937Y-1.675
X2.8937Y-1.775
X2.8937Y-1.875
X2.8937Y-1.975
X2.8937Y-2.075
X2.8937Y-2.175
X2.8937Y-2.275
X2.8937Y-2.375
X2.8937Y-2.475
X2.8937Y-2.575
X2.8937Y-2.675
T4
X4.9125Y-2.4312
X4.9641Y-2.3738
X5.1609Y-2.3541
X5.1625Y-2.3312
X4.9125Y-3.9312
X4.9641Y-3.8738
X5.1609Y-3.8541
X5.1625Y-3.8312
X4.9125Y-1.6812
X4.9641Y-1.6238
X5.1609Y-1.6041
X5.1625Y-1.5813
X3.4125Y-2.4312
X3.4641Y-2.3738
X3.6609Y-2.3541
X3.6625Y-2.3312
X3.4125Y-3.9312
X3.4641Y-3.8738
X3.6609Y-3.8541
X3.6625Y-3.8312
X3.4125Y-1.6812
X3.4641Y-1.6238
X3.6609Y-1.6041
X3.6625Y-1.5813
X3.4125Y-3.1812
X3.4641Y-3.1238
X3.6609Y-3.1041
X3.6625Y-3.0812
X4.1625Y-1.6812
X4.2141Y-1.6238
X4.4109Y-1.6041
X4.4125Y-1.5813
X4.1625Y-3.9312
X4.2141Y-3.8738
X4.4109Y-3.8541
X4.4125Y-3.8312
X4.1625Y-2.4312
X4.2141Y-2.3738
X4.4109Y-2.3541
X4.4125Y-2.3312
X4.9125Y-3.1812
X4.9641Y-3.1238
X5.1609Y-3.1041
X5.1625Y-3.0812
X4.1625Y-3.1812
X4.2141Y-3.1238
X4.4109Y-3.1041
X4.4125Y-3.0812
T0
M30
