G04 #@! TF.GenerationSoftware,KiCad,Pcbnew,(5.1.5)-3*
G04 #@! TF.CreationDate,2020-05-01T19:28:24-04:00*
G04 #@! TF.ProjectId,BookerBoard,426f6f6b-6572-4426-9f61-72642e6b6963,rev?*
G04 #@! TF.SameCoordinates,Original*
G04 #@! TF.FileFunction,Profile,NP*
%FSLAX46Y46*%
G04 Gerber Fmt 4.6, Leading zero omitted, Abs format (unit mm)*
G04 Created by KiCad (PCBNEW (5.1.5)-3) date 2020-05-01 19:28:24*
%MOMM*%
%LPD*%
G04 APERTURE LIST*
%ADD10C,0.050000*%
G04 APERTURE END LIST*
D10*
X142875000Y-96043750D02*
X142875000Y-52387500D01*
X146843750Y-96043750D02*
X142875000Y-96043750D01*
X146843750Y-52387500D02*
X146843750Y-96043750D01*
X142875000Y-52387500D02*
X146843750Y-52387500D01*
X143668750Y-97631250D02*
X142875000Y-97631250D01*
X146843750Y-97631250D02*
X143668750Y-97631250D01*
X146843750Y-96837500D02*
X146843750Y-97631250D01*
X142875000Y-96837500D02*
X146843750Y-96837500D01*
X142875000Y-97631250D02*
X142875000Y-96837500D01*
X146843750Y-99218750D02*
X142875000Y-99218750D01*
X146843750Y-98425000D02*
X146843750Y-99218750D01*
X142875000Y-98425000D02*
X146843750Y-98425000D01*
X142875000Y-99218750D02*
X142875000Y-98425000D01*
X146843750Y-100806250D02*
X142875000Y-100806250D01*
X146843750Y-100012500D02*
X146843750Y-100806250D01*
X142875000Y-100012500D02*
X146843750Y-100012500D01*
X142875000Y-100806250D02*
X142875000Y-100012500D01*
X146843750Y-102393750D02*
X142875000Y-102393750D01*
X146843750Y-101600000D02*
X146843750Y-102393750D01*
X142875000Y-101600000D02*
X146843750Y-101600000D01*
X142875000Y-102393750D02*
X142875000Y-101600000D01*
X146843750Y-103981250D02*
X142875000Y-103981250D01*
X146843750Y-103187500D02*
X146843750Y-103981250D01*
X142875000Y-103187500D02*
X146843750Y-103187500D01*
X142875000Y-103981250D02*
X142875000Y-103187500D01*
X146843750Y-50800000D02*
X146843750Y-51593750D01*
X142875000Y-50800000D02*
X146843750Y-50800000D01*
X142875000Y-51593750D02*
X142875000Y-50800000D01*
X146843750Y-49212500D02*
X142875000Y-49212500D01*
X146843750Y-50006250D02*
X146843750Y-49212500D01*
X142875000Y-50006250D02*
X146843750Y-50006250D01*
X142875000Y-49212500D02*
X142875000Y-50006250D01*
X146843750Y-47625000D02*
X142875000Y-47625000D01*
X146843750Y-48418750D02*
X146843750Y-47625000D01*
X142875000Y-48418750D02*
X146843750Y-48418750D01*
X142875000Y-47625000D02*
X142875000Y-48418750D01*
X146843750Y-46037500D02*
X142875000Y-46037500D01*
X146843750Y-46831250D02*
X146843750Y-46037500D01*
X142875000Y-46831250D02*
X146843750Y-46831250D01*
X142875000Y-46037500D02*
X142875000Y-46831250D01*
X146843750Y-44450000D02*
X142875000Y-44450000D01*
X146843750Y-45243750D02*
X146843750Y-44450000D01*
X142875000Y-45243750D02*
X146843750Y-45243750D01*
X142875000Y-44450000D02*
X142875000Y-45243750D01*
X142875000Y-51593750D02*
X146843750Y-51593750D01*
X146843750Y-43656250D02*
X146843750Y-37306250D01*
X142875000Y-43656250D02*
X146843750Y-43656250D01*
X142875000Y-37306250D02*
X142875000Y-43656250D01*
X142875000Y-104775000D02*
X142875000Y-111125000D01*
X146843750Y-111125000D02*
X146843750Y-104775000D01*
X142875000Y-104775000D02*
X146843750Y-104775000D01*
X238125000Y-35718750D02*
G75*
G02X239712500Y-37306250I0J-1587500D01*
G01*
X148431250Y-112712500D02*
X231775000Y-112712500D01*
X239712500Y-111125000D02*
G75*
G02X238125000Y-112712500I-1587500J0D01*
G01*
X146843750Y-37306250D02*
G75*
G02X148431250Y-35718750I1587500J0D01*
G01*
X148431250Y-112712500D02*
G75*
G02X146843750Y-111125000I0J1587500D01*
G01*
X239712500Y-111125000D02*
X239712500Y-37306250D01*
X238125000Y-35718750D02*
X148431250Y-35718750D01*
X231775000Y-112712500D02*
X238125000Y-112712500D01*
X141287500Y-35718750D02*
X51593750Y-35718750D01*
X134937500Y-112712500D02*
X141287500Y-112712500D01*
X50006250Y-37306250D02*
X50006250Y-111125000D01*
X51593750Y-112712500D02*
X134937500Y-112712500D01*
X141287500Y-35718750D02*
G75*
G02X142875000Y-37306250I0J-1587500D01*
G01*
X142875000Y-111125000D02*
G75*
G02X141287500Y-112712500I-1587500J0D01*
G01*
X51593750Y-112712500D02*
G75*
G02X50006250Y-111125000I0J1587500D01*
G01*
X50006250Y-37306250D02*
G75*
G02X51593750Y-35718750I1587500J0D01*
G01*
M02*
