G04 #@! TF.GenerationSoftware,KiCad,Pcbnew,(5.1.5)-3*
G04 #@! TF.CreationDate,2020-05-01T19:28:23-04:00*
G04 #@! TF.ProjectId,BookerBoard,426f6f6b-6572-4426-9f61-72642e6b6963,rev?*
G04 #@! TF.SameCoordinates,Original*
G04 #@! TF.FileFunction,Copper,L2,Bot*
G04 #@! TF.FilePolarity,Positive*
%FSLAX46Y46*%
G04 Gerber Fmt 4.6, Leading zero omitted, Abs format (unit mm)*
G04 Created by KiCad (PCBNEW (5.1.5)-3) date 2020-05-01 19:28:23*
%MOMM*%
%LPD*%
G04 APERTURE LIST*
%ADD10C,1.600000*%
%ADD11C,0.100000*%
%ADD12C,1.600000*%
%ADD13R,1.600000X1.600000*%
%ADD14C,2.250000*%
%ADD15C,2.250000*%
%ADD16C,1.998980*%
%ADD17R,1.998980X1.998980*%
%ADD18C,0.250000*%
%ADD19C,0.254000*%
G04 APERTURE END LIST*
D10*
X72856904Y-107781904D02*
X72856904Y-107781904D01*
G04 #@! TA.AperFunction,ComponentPad*
D11*
G36*
X66337379Y-102393750D02*
G01*
X67468750Y-101262379D01*
X68600121Y-102393750D01*
X67468750Y-103525121D01*
X66337379Y-102393750D01*
G37*
G04 #@! TD.AperFunction*
D12*
X73501250Y-40005000D03*
X73501250Y-42545000D03*
X73501250Y-45085000D03*
X73501250Y-47625000D03*
X73501250Y-50165000D03*
X73501250Y-52705000D03*
X73501250Y-55245000D03*
X73501250Y-57785000D03*
X73501250Y-60325000D03*
X73501250Y-62865000D03*
X73501250Y-65405000D03*
X73501250Y-67945000D03*
X58261250Y-67945000D03*
X58261250Y-65405000D03*
X58261250Y-62865000D03*
X58261250Y-60325000D03*
X58261250Y-57785000D03*
X58261250Y-55245000D03*
X58261250Y-52705000D03*
X58261250Y-50165000D03*
X58261250Y-47625000D03*
X58261250Y-45085000D03*
X58261250Y-42545000D03*
D13*
X58261250Y-40005000D03*
D14*
X126087500Y-98393750D03*
D15*
X124777500Y-99853750D02*
X126087502Y-98393750D01*
D14*
X131127500Y-97313750D03*
D15*
X131087500Y-97893750D02*
X131127500Y-97313750D01*
D14*
X126087500Y-79343750D03*
D15*
X124777500Y-80803750D02*
X126087502Y-79343750D01*
D14*
X131127500Y-78263750D03*
D15*
X131087500Y-78843750D02*
X131127500Y-78263750D01*
D14*
X126087500Y-60293750D03*
D15*
X124777500Y-61753750D02*
X126087502Y-60293750D01*
D14*
X131127500Y-59213750D03*
D15*
X131087500Y-59793750D02*
X131127500Y-59213750D01*
D14*
X126087500Y-41243750D03*
D15*
X124777500Y-42703750D02*
X126087502Y-41243750D01*
D14*
X131127500Y-40163750D03*
D15*
X131087500Y-40743750D02*
X131127500Y-40163750D01*
D14*
X107037500Y-98393750D03*
D15*
X105727500Y-99853750D02*
X107037502Y-98393750D01*
D14*
X112077500Y-97313750D03*
D15*
X112037500Y-97893750D02*
X112077500Y-97313750D01*
D14*
X107037500Y-79343750D03*
D15*
X105727500Y-80803750D02*
X107037502Y-79343750D01*
D14*
X112077500Y-78263750D03*
D15*
X112037500Y-78843750D02*
X112077500Y-78263750D01*
D14*
X107037500Y-60293750D03*
D15*
X105727500Y-61753750D02*
X107037502Y-60293750D01*
D14*
X112077500Y-59213750D03*
D15*
X112037500Y-59793750D02*
X112077500Y-59213750D01*
D14*
X107037500Y-41243750D03*
D15*
X105727500Y-42703750D02*
X107037502Y-41243750D01*
D14*
X112077500Y-40163750D03*
D15*
X112037500Y-40743750D02*
X112077500Y-40163750D01*
D14*
X87987500Y-98393750D03*
D15*
X86677500Y-99853750D02*
X87987502Y-98393750D01*
D14*
X93027500Y-97313750D03*
D15*
X92987500Y-97893750D02*
X93027500Y-97313750D01*
D14*
X87987500Y-79343750D03*
D15*
X86677500Y-80803750D02*
X87987502Y-79343750D01*
D14*
X93027500Y-78263750D03*
D15*
X92987500Y-78843750D02*
X93027500Y-78263750D01*
D14*
X87987500Y-60293750D03*
D15*
X86677500Y-61753750D02*
X87987502Y-60293750D01*
D14*
X93027500Y-59213750D03*
D15*
X92987500Y-59793750D02*
X93027500Y-59213750D01*
D14*
X87987500Y-41243750D03*
D15*
X86677500Y-42703750D02*
X87987502Y-41243750D01*
D14*
X93027500Y-40163750D03*
D15*
X92987500Y-40743750D02*
X93027500Y-40163750D01*
D16*
X77787500Y-41275000D03*
D17*
X77787500Y-45085000D03*
D10*
X72856904Y-98256904D02*
X72856904Y-98256904D01*
G04 #@! TA.AperFunction,ComponentPad*
D11*
G36*
X66337379Y-92868750D02*
G01*
X67468750Y-91737379D01*
X68600121Y-92868750D01*
X67468750Y-94000121D01*
X66337379Y-92868750D01*
G37*
G04 #@! TD.AperFunction*
D10*
X72856904Y-88731904D02*
X72856904Y-88731904D01*
G04 #@! TA.AperFunction,ComponentPad*
D11*
G36*
X66337379Y-83343750D02*
G01*
X67468750Y-82212379D01*
X68600121Y-83343750D01*
X67468750Y-84475121D01*
X66337379Y-83343750D01*
G37*
G04 #@! TD.AperFunction*
D10*
X72856904Y-79206904D02*
X72856904Y-79206904D01*
G04 #@! TA.AperFunction,ComponentPad*
D11*
G36*
X66337379Y-73818750D02*
G01*
X67468750Y-72687379D01*
X68600121Y-73818750D01*
X67468750Y-74950121D01*
X66337379Y-73818750D01*
G37*
G04 #@! TD.AperFunction*
D10*
X68888154Y-107781904D02*
X68888154Y-107781904D01*
G04 #@! TA.AperFunction,ComponentPad*
D11*
G36*
X62368629Y-102393750D02*
G01*
X63500000Y-101262379D01*
X64631371Y-102393750D01*
X63500000Y-103525121D01*
X62368629Y-102393750D01*
G37*
G04 #@! TD.AperFunction*
D10*
X68888154Y-98256904D02*
X68888154Y-98256904D01*
G04 #@! TA.AperFunction,ComponentPad*
D11*
G36*
X62368629Y-92868750D02*
G01*
X63500000Y-91737379D01*
X64631371Y-92868750D01*
X63500000Y-94000121D01*
X62368629Y-92868750D01*
G37*
G04 #@! TD.AperFunction*
D10*
X68888154Y-88731904D02*
X68888154Y-88731904D01*
G04 #@! TA.AperFunction,ComponentPad*
D11*
G36*
X62368629Y-83343750D02*
G01*
X63500000Y-82212379D01*
X64631371Y-83343750D01*
X63500000Y-84475121D01*
X62368629Y-83343750D01*
G37*
G04 #@! TD.AperFunction*
D10*
X68888154Y-79206904D02*
X68888154Y-79206904D01*
G04 #@! TA.AperFunction,ComponentPad*
D11*
G36*
X62368629Y-73818750D02*
G01*
X63500000Y-72687379D01*
X64631371Y-73818750D01*
X63500000Y-74950121D01*
X62368629Y-73818750D01*
G37*
G04 #@! TD.AperFunction*
D10*
X64919404Y-107781904D02*
X64919404Y-107781904D01*
G04 #@! TA.AperFunction,ComponentPad*
D11*
G36*
X58399879Y-102393750D02*
G01*
X59531250Y-101262379D01*
X60662621Y-102393750D01*
X59531250Y-103525121D01*
X58399879Y-102393750D01*
G37*
G04 #@! TD.AperFunction*
D10*
X64919404Y-98256904D02*
X64919404Y-98256904D01*
G04 #@! TA.AperFunction,ComponentPad*
D11*
G36*
X58399879Y-92868750D02*
G01*
X59531250Y-91737379D01*
X60662621Y-92868750D01*
X59531250Y-94000121D01*
X58399879Y-92868750D01*
G37*
G04 #@! TD.AperFunction*
D10*
X64919404Y-88731904D02*
X64919404Y-88731904D01*
G04 #@! TA.AperFunction,ComponentPad*
D11*
G36*
X58399879Y-83343750D02*
G01*
X59531250Y-82212379D01*
X60662621Y-83343750D01*
X59531250Y-84475121D01*
X58399879Y-83343750D01*
G37*
G04 #@! TD.AperFunction*
G04 #@! TA.AperFunction,ComponentPad*
G36*
X58399879Y-73818750D02*
G01*
X59531250Y-72687379D01*
X60662621Y-73818750D01*
X59531250Y-74950121D01*
X58399879Y-73818750D01*
G37*
G04 #@! TD.AperFunction*
D10*
X64919404Y-79206904D02*
X64919404Y-79206904D01*
D18*
X64919404Y-79206904D02*
X64919404Y-78749346D01*
X64919404Y-88731904D02*
X65255596Y-88731904D01*
X64919404Y-98256904D02*
X65255596Y-98256904D01*
X68888154Y-98256904D02*
X69224346Y-98256904D01*
X131762500Y-41418750D02*
X131087500Y-40743750D01*
X59392620Y-45085000D02*
X59531250Y-45223630D01*
X58261250Y-45085000D02*
X59392620Y-45085000D01*
X59531250Y-45223630D02*
X66654880Y-45223630D01*
X69333510Y-42545000D02*
X73501250Y-42545000D01*
X66654880Y-45223630D02*
X69333510Y-42545000D01*
X76517500Y-42545000D02*
X77787500Y-41275000D01*
X73501250Y-42545000D02*
X76517500Y-42545000D01*
X64293750Y-47625000D02*
X58261250Y-47625000D01*
X66654880Y-45263870D02*
X64293750Y-47625000D01*
X73501250Y-45085000D02*
X77787500Y-45085000D01*
X87312500Y-62388750D02*
X86677500Y-61753750D01*
X86677500Y-80803750D02*
X86677500Y-76835000D01*
X87312500Y-76200000D02*
X87312500Y-62388750D01*
X86677500Y-76835000D02*
X87312500Y-76200000D01*
X87312500Y-81438750D02*
X86677500Y-80803750D01*
X87312500Y-95250000D02*
X87312500Y-81438750D01*
X86677500Y-99853750D02*
X86677500Y-95885000D01*
X86677500Y-95885000D02*
X87312500Y-95250000D01*
X87312500Y-43338750D02*
X86677500Y-42703750D01*
X87312500Y-57150000D02*
X87312500Y-43338750D01*
X86677500Y-61753750D02*
X86677500Y-57785000D01*
X86677500Y-57785000D02*
X87312500Y-57150000D01*
X106362500Y-62388750D02*
X105727500Y-61753750D01*
X106362500Y-76200000D02*
X106362500Y-62388750D01*
X105727500Y-80803750D02*
X105727500Y-76835000D01*
X105727500Y-76835000D02*
X106362500Y-76200000D01*
X106362500Y-81438750D02*
X105727500Y-80803750D01*
X106362500Y-95250000D02*
X106362500Y-81438750D01*
X105727500Y-99853750D02*
X105727500Y-95885000D01*
X105727500Y-95885000D02*
X106362500Y-95250000D01*
X106362500Y-43338750D02*
X105727500Y-42703750D01*
X105727500Y-61753750D02*
X105727500Y-57785000D01*
X106362500Y-57150000D02*
X106362500Y-43338750D01*
X105727500Y-57785000D02*
X106362500Y-57150000D01*
X125412500Y-62388750D02*
X124777500Y-61753750D01*
X124777500Y-80803750D02*
X124777500Y-76835000D01*
X125412500Y-76200000D02*
X125412500Y-62388750D01*
X124777500Y-76835000D02*
X125412500Y-76200000D01*
X125412500Y-81438750D02*
X124777500Y-80803750D01*
X125412500Y-95250000D02*
X125412500Y-81438750D01*
X124777500Y-99853750D02*
X124777500Y-95885000D01*
X124777500Y-95885000D02*
X125412500Y-95250000D01*
X125412500Y-43338750D02*
X124777500Y-42703750D01*
X125412500Y-57150000D02*
X125412500Y-43338750D01*
X124777500Y-61753750D02*
X124777500Y-57785000D01*
X124777500Y-57785000D02*
X125412500Y-57150000D01*
D19*
G36*
X80041750Y-69723000D02*
G01*
X56483250Y-69723000D01*
X56483250Y-50023665D01*
X56826250Y-50023665D01*
X56826250Y-50306335D01*
X56881397Y-50583574D01*
X56989570Y-50844727D01*
X57146613Y-51079759D01*
X57346491Y-51279637D01*
X57579009Y-51435000D01*
X57346491Y-51590363D01*
X57146613Y-51790241D01*
X56989570Y-52025273D01*
X56881397Y-52286426D01*
X56826250Y-52563665D01*
X56826250Y-52846335D01*
X56881397Y-53123574D01*
X56989570Y-53384727D01*
X57146613Y-53619759D01*
X57346491Y-53819637D01*
X57579009Y-53975000D01*
X57346491Y-54130363D01*
X57146613Y-54330241D01*
X56989570Y-54565273D01*
X56881397Y-54826426D01*
X56826250Y-55103665D01*
X56826250Y-55386335D01*
X56881397Y-55663574D01*
X56989570Y-55924727D01*
X57146613Y-56159759D01*
X57346491Y-56359637D01*
X57579009Y-56515000D01*
X57346491Y-56670363D01*
X57146613Y-56870241D01*
X56989570Y-57105273D01*
X56881397Y-57366426D01*
X56826250Y-57643665D01*
X56826250Y-57926335D01*
X56881397Y-58203574D01*
X56989570Y-58464727D01*
X57146613Y-58699759D01*
X57346491Y-58899637D01*
X57579009Y-59055000D01*
X57346491Y-59210363D01*
X57146613Y-59410241D01*
X56989570Y-59645273D01*
X56881397Y-59906426D01*
X56826250Y-60183665D01*
X56826250Y-60466335D01*
X56881397Y-60743574D01*
X56989570Y-61004727D01*
X57146613Y-61239759D01*
X57346491Y-61439637D01*
X57579009Y-61595000D01*
X57346491Y-61750363D01*
X57146613Y-61950241D01*
X56989570Y-62185273D01*
X56881397Y-62446426D01*
X56826250Y-62723665D01*
X56826250Y-63006335D01*
X56881397Y-63283574D01*
X56989570Y-63544727D01*
X57146613Y-63779759D01*
X57346491Y-63979637D01*
X57579009Y-64135000D01*
X57346491Y-64290363D01*
X57146613Y-64490241D01*
X56989570Y-64725273D01*
X56881397Y-64986426D01*
X56826250Y-65263665D01*
X56826250Y-65546335D01*
X56881397Y-65823574D01*
X56989570Y-66084727D01*
X57146613Y-66319759D01*
X57346491Y-66519637D01*
X57579009Y-66675000D01*
X57346491Y-66830363D01*
X57146613Y-67030241D01*
X56989570Y-67265273D01*
X56881397Y-67526426D01*
X56826250Y-67803665D01*
X56826250Y-68086335D01*
X56881397Y-68363574D01*
X56989570Y-68624727D01*
X57146613Y-68859759D01*
X57346491Y-69059637D01*
X57581523Y-69216680D01*
X57842676Y-69324853D01*
X58119915Y-69380000D01*
X58402585Y-69380000D01*
X58679824Y-69324853D01*
X58940977Y-69216680D01*
X59176009Y-69059637D01*
X59375887Y-68859759D01*
X59532930Y-68624727D01*
X59641103Y-68363574D01*
X59696250Y-68086335D01*
X59696250Y-67803665D01*
X59641103Y-67526426D01*
X59532930Y-67265273D01*
X59375887Y-67030241D01*
X59176009Y-66830363D01*
X58943491Y-66675000D01*
X59176009Y-66519637D01*
X59375887Y-66319759D01*
X59532930Y-66084727D01*
X59641103Y-65823574D01*
X59696250Y-65546335D01*
X59696250Y-65263665D01*
X59641103Y-64986426D01*
X59532930Y-64725273D01*
X59375887Y-64490241D01*
X59176009Y-64290363D01*
X58943491Y-64135000D01*
X59176009Y-63979637D01*
X59375887Y-63779759D01*
X59532930Y-63544727D01*
X59641103Y-63283574D01*
X59696250Y-63006335D01*
X59696250Y-62723665D01*
X59641103Y-62446426D01*
X59532930Y-62185273D01*
X59375887Y-61950241D01*
X59176009Y-61750363D01*
X58943491Y-61595000D01*
X59176009Y-61439637D01*
X59375887Y-61239759D01*
X59532930Y-61004727D01*
X59641103Y-60743574D01*
X59696250Y-60466335D01*
X59696250Y-60183665D01*
X59641103Y-59906426D01*
X59532930Y-59645273D01*
X59375887Y-59410241D01*
X59176009Y-59210363D01*
X58943491Y-59055000D01*
X59176009Y-58899637D01*
X59375887Y-58699759D01*
X59532930Y-58464727D01*
X59641103Y-58203574D01*
X59696250Y-57926335D01*
X59696250Y-57643665D01*
X59641103Y-57366426D01*
X59532930Y-57105273D01*
X59375887Y-56870241D01*
X59176009Y-56670363D01*
X58943491Y-56515000D01*
X59176009Y-56359637D01*
X59375887Y-56159759D01*
X59532930Y-55924727D01*
X59641103Y-55663574D01*
X59696250Y-55386335D01*
X59696250Y-55103665D01*
X59641103Y-54826426D01*
X59532930Y-54565273D01*
X59375887Y-54330241D01*
X59176009Y-54130363D01*
X58943491Y-53975000D01*
X59176009Y-53819637D01*
X59375887Y-53619759D01*
X59532930Y-53384727D01*
X59641103Y-53123574D01*
X59696250Y-52846335D01*
X59696250Y-52563665D01*
X59641103Y-52286426D01*
X59532930Y-52025273D01*
X59375887Y-51790241D01*
X59176009Y-51590363D01*
X58943491Y-51435000D01*
X59176009Y-51279637D01*
X59375887Y-51079759D01*
X59532930Y-50844727D01*
X59641103Y-50583574D01*
X59696250Y-50306335D01*
X59696250Y-50023665D01*
X59641103Y-49746426D01*
X59532930Y-49485273D01*
X59375887Y-49250241D01*
X59176009Y-49050363D01*
X58942122Y-48894085D01*
X59002764Y-48861671D01*
X59074347Y-48617702D01*
X58261250Y-47804605D01*
X57448153Y-48617702D01*
X57519736Y-48861671D01*
X57584242Y-48892194D01*
X57581523Y-48893320D01*
X57346491Y-49050363D01*
X57146613Y-49250241D01*
X56989570Y-49485273D01*
X56881397Y-49746426D01*
X56826250Y-50023665D01*
X56483250Y-50023665D01*
X56483250Y-47695512D01*
X56821033Y-47695512D01*
X56862463Y-47975130D01*
X56957647Y-48241292D01*
X57024579Y-48366514D01*
X57268548Y-48438097D01*
X58081645Y-47625000D01*
X58440855Y-47625000D01*
X59253952Y-48438097D01*
X59497921Y-48366514D01*
X59618821Y-48111004D01*
X59687550Y-47836816D01*
X59701467Y-47554488D01*
X59660037Y-47274870D01*
X59564853Y-47008708D01*
X59497921Y-46883486D01*
X59253952Y-46811903D01*
X58440855Y-47625000D01*
X58081645Y-47625000D01*
X57268548Y-46811903D01*
X57024579Y-46883486D01*
X56903679Y-47138996D01*
X56834950Y-47413184D01*
X56821033Y-47695512D01*
X56483250Y-47695512D01*
X56483250Y-46077702D01*
X57448153Y-46077702D01*
X57519736Y-46321671D01*
X57585886Y-46352971D01*
X57519736Y-46388329D01*
X57448153Y-46632298D01*
X58261250Y-47445395D01*
X59074347Y-46632298D01*
X59002764Y-46388329D01*
X58936614Y-46357029D01*
X59002764Y-46321671D01*
X59074347Y-46077702D01*
X58261250Y-45264605D01*
X57448153Y-46077702D01*
X56483250Y-46077702D01*
X56483250Y-45155512D01*
X56821033Y-45155512D01*
X56862463Y-45435130D01*
X56957647Y-45701292D01*
X57024579Y-45826514D01*
X57268548Y-45898097D01*
X58081645Y-45085000D01*
X58440855Y-45085000D01*
X59253952Y-45898097D01*
X59497921Y-45826514D01*
X59618821Y-45571004D01*
X59687550Y-45296816D01*
X59701467Y-45014488D01*
X59690974Y-44943665D01*
X72066250Y-44943665D01*
X72066250Y-45226335D01*
X72121397Y-45503574D01*
X72229570Y-45764727D01*
X72386613Y-45999759D01*
X72586491Y-46199637D01*
X72819009Y-46355000D01*
X72586491Y-46510363D01*
X72386613Y-46710241D01*
X72229570Y-46945273D01*
X72121397Y-47206426D01*
X72066250Y-47483665D01*
X72066250Y-47766335D01*
X72121397Y-48043574D01*
X72229570Y-48304727D01*
X72386613Y-48539759D01*
X72586491Y-48739637D01*
X72819009Y-48895000D01*
X72586491Y-49050363D01*
X72386613Y-49250241D01*
X72229570Y-49485273D01*
X72121397Y-49746426D01*
X72066250Y-50023665D01*
X72066250Y-50306335D01*
X72121397Y-50583574D01*
X72229570Y-50844727D01*
X72386613Y-51079759D01*
X72586491Y-51279637D01*
X72819009Y-51435000D01*
X72586491Y-51590363D01*
X72386613Y-51790241D01*
X72229570Y-52025273D01*
X72121397Y-52286426D01*
X72066250Y-52563665D01*
X72066250Y-52846335D01*
X72121397Y-53123574D01*
X72229570Y-53384727D01*
X72386613Y-53619759D01*
X72586491Y-53819637D01*
X72819009Y-53975000D01*
X72586491Y-54130363D01*
X72386613Y-54330241D01*
X72229570Y-54565273D01*
X72121397Y-54826426D01*
X72066250Y-55103665D01*
X72066250Y-55386335D01*
X72121397Y-55663574D01*
X72229570Y-55924727D01*
X72386613Y-56159759D01*
X72586491Y-56359637D01*
X72819009Y-56515000D01*
X72586491Y-56670363D01*
X72386613Y-56870241D01*
X72229570Y-57105273D01*
X72121397Y-57366426D01*
X72066250Y-57643665D01*
X72066250Y-57926335D01*
X72121397Y-58203574D01*
X72229570Y-58464727D01*
X72386613Y-58699759D01*
X72586491Y-58899637D01*
X72819009Y-59055000D01*
X72586491Y-59210363D01*
X72386613Y-59410241D01*
X72229570Y-59645273D01*
X72121397Y-59906426D01*
X72066250Y-60183665D01*
X72066250Y-60466335D01*
X72121397Y-60743574D01*
X72229570Y-61004727D01*
X72386613Y-61239759D01*
X72586491Y-61439637D01*
X72819009Y-61595000D01*
X72586491Y-61750363D01*
X72386613Y-61950241D01*
X72229570Y-62185273D01*
X72121397Y-62446426D01*
X72066250Y-62723665D01*
X72066250Y-63006335D01*
X72121397Y-63283574D01*
X72229570Y-63544727D01*
X72386613Y-63779759D01*
X72586491Y-63979637D01*
X72819009Y-64135000D01*
X72586491Y-64290363D01*
X72386613Y-64490241D01*
X72229570Y-64725273D01*
X72121397Y-64986426D01*
X72066250Y-65263665D01*
X72066250Y-65546335D01*
X72121397Y-65823574D01*
X72229570Y-66084727D01*
X72386613Y-66319759D01*
X72586491Y-66519637D01*
X72819009Y-66675000D01*
X72586491Y-66830363D01*
X72386613Y-67030241D01*
X72229570Y-67265273D01*
X72121397Y-67526426D01*
X72066250Y-67803665D01*
X72066250Y-68086335D01*
X72121397Y-68363574D01*
X72229570Y-68624727D01*
X72386613Y-68859759D01*
X72586491Y-69059637D01*
X72821523Y-69216680D01*
X73082676Y-69324853D01*
X73359915Y-69380000D01*
X73642585Y-69380000D01*
X73919824Y-69324853D01*
X74180977Y-69216680D01*
X74416009Y-69059637D01*
X74615887Y-68859759D01*
X74772930Y-68624727D01*
X74881103Y-68363574D01*
X74936250Y-68086335D01*
X74936250Y-67803665D01*
X74881103Y-67526426D01*
X74772930Y-67265273D01*
X74615887Y-67030241D01*
X74416009Y-66830363D01*
X74183491Y-66675000D01*
X74416009Y-66519637D01*
X74615887Y-66319759D01*
X74772930Y-66084727D01*
X74881103Y-65823574D01*
X74936250Y-65546335D01*
X74936250Y-65263665D01*
X74881103Y-64986426D01*
X74772930Y-64725273D01*
X74615887Y-64490241D01*
X74416009Y-64290363D01*
X74183491Y-64135000D01*
X74416009Y-63979637D01*
X74615887Y-63779759D01*
X74772930Y-63544727D01*
X74881103Y-63283574D01*
X74936250Y-63006335D01*
X74936250Y-62723665D01*
X74881103Y-62446426D01*
X74772930Y-62185273D01*
X74615887Y-61950241D01*
X74416009Y-61750363D01*
X74183491Y-61595000D01*
X74416009Y-61439637D01*
X74615887Y-61239759D01*
X74772930Y-61004727D01*
X74881103Y-60743574D01*
X74936250Y-60466335D01*
X74936250Y-60183665D01*
X74881103Y-59906426D01*
X74772930Y-59645273D01*
X74615887Y-59410241D01*
X74416009Y-59210363D01*
X74183491Y-59055000D01*
X74416009Y-58899637D01*
X74615887Y-58699759D01*
X74772930Y-58464727D01*
X74881103Y-58203574D01*
X74936250Y-57926335D01*
X74936250Y-57643665D01*
X74881103Y-57366426D01*
X74772930Y-57105273D01*
X74615887Y-56870241D01*
X74416009Y-56670363D01*
X74183491Y-56515000D01*
X74416009Y-56359637D01*
X74615887Y-56159759D01*
X74772930Y-55924727D01*
X74881103Y-55663574D01*
X74936250Y-55386335D01*
X74936250Y-55103665D01*
X74881103Y-54826426D01*
X74772930Y-54565273D01*
X74615887Y-54330241D01*
X74416009Y-54130363D01*
X74183491Y-53975000D01*
X74416009Y-53819637D01*
X74615887Y-53619759D01*
X74772930Y-53384727D01*
X74881103Y-53123574D01*
X74936250Y-52846335D01*
X74936250Y-52563665D01*
X74881103Y-52286426D01*
X74772930Y-52025273D01*
X74615887Y-51790241D01*
X74416009Y-51590363D01*
X74183491Y-51435000D01*
X74416009Y-51279637D01*
X74615887Y-51079759D01*
X74772930Y-50844727D01*
X74881103Y-50583574D01*
X74936250Y-50306335D01*
X74936250Y-50023665D01*
X74881103Y-49746426D01*
X74772930Y-49485273D01*
X74615887Y-49250241D01*
X74416009Y-49050363D01*
X74183491Y-48895000D01*
X74416009Y-48739637D01*
X74615887Y-48539759D01*
X74772930Y-48304727D01*
X74881103Y-48043574D01*
X74936250Y-47766335D01*
X74936250Y-47483665D01*
X74881103Y-47206426D01*
X74772930Y-46945273D01*
X74615887Y-46710241D01*
X74416009Y-46510363D01*
X74183491Y-46355000D01*
X74416009Y-46199637D01*
X74615887Y-45999759D01*
X74719293Y-45845000D01*
X76149938Y-45845000D01*
X76149938Y-46084490D01*
X76162198Y-46208972D01*
X76198508Y-46328670D01*
X76257473Y-46438984D01*
X76336825Y-46535675D01*
X76433516Y-46615027D01*
X76543830Y-46673992D01*
X76663528Y-46710302D01*
X76788010Y-46722562D01*
X78786990Y-46722562D01*
X78911472Y-46710302D01*
X79031170Y-46673992D01*
X79141484Y-46615027D01*
X79238175Y-46535675D01*
X79317527Y-46438984D01*
X79376492Y-46328670D01*
X79412802Y-46208972D01*
X79425062Y-46084490D01*
X79425062Y-44085510D01*
X79412802Y-43961028D01*
X79376492Y-43841330D01*
X79317527Y-43731016D01*
X79238175Y-43634325D01*
X79141484Y-43554973D01*
X79031170Y-43496008D01*
X78911472Y-43459698D01*
X78786990Y-43447438D01*
X76788010Y-43447438D01*
X76663528Y-43459698D01*
X76543830Y-43496008D01*
X76433516Y-43554973D01*
X76336825Y-43634325D01*
X76257473Y-43731016D01*
X76198508Y-43841330D01*
X76162198Y-43961028D01*
X76149938Y-44085510D01*
X76149938Y-44325000D01*
X74719293Y-44325000D01*
X74615887Y-44170241D01*
X74416009Y-43970363D01*
X74182122Y-43814085D01*
X74242764Y-43781671D01*
X74314347Y-43537702D01*
X73501250Y-42724605D01*
X72688153Y-43537702D01*
X72759736Y-43781671D01*
X72824242Y-43812194D01*
X72821523Y-43813320D01*
X72586491Y-43970363D01*
X72386613Y-44170241D01*
X72229570Y-44405273D01*
X72121397Y-44666426D01*
X72066250Y-44943665D01*
X59690974Y-44943665D01*
X59660037Y-44734870D01*
X59564853Y-44468708D01*
X59497921Y-44343486D01*
X59253952Y-44271903D01*
X58440855Y-45085000D01*
X58081645Y-45085000D01*
X57268548Y-44271903D01*
X57024579Y-44343486D01*
X56903679Y-44598996D01*
X56834950Y-44873184D01*
X56821033Y-45155512D01*
X56483250Y-45155512D01*
X56483250Y-39205000D01*
X56823178Y-39205000D01*
X56823178Y-40805000D01*
X56835438Y-40929482D01*
X56871748Y-41049180D01*
X56930713Y-41159494D01*
X57010065Y-41256185D01*
X57106756Y-41335537D01*
X57217070Y-41394502D01*
X57336768Y-41430812D01*
X57345211Y-41431643D01*
X57146613Y-41630241D01*
X56989570Y-41865273D01*
X56881397Y-42126426D01*
X56826250Y-42403665D01*
X56826250Y-42686335D01*
X56881397Y-42963574D01*
X56989570Y-43224727D01*
X57146613Y-43459759D01*
X57346491Y-43659637D01*
X57580378Y-43815915D01*
X57519736Y-43848329D01*
X57448153Y-44092298D01*
X58261250Y-44905395D01*
X59074347Y-44092298D01*
X59002764Y-43848329D01*
X58938258Y-43817806D01*
X58940977Y-43816680D01*
X59176009Y-43659637D01*
X59375887Y-43459759D01*
X59532930Y-43224727D01*
X59641103Y-42963574D01*
X59696250Y-42686335D01*
X59696250Y-42615512D01*
X72061033Y-42615512D01*
X72102463Y-42895130D01*
X72197647Y-43161292D01*
X72264579Y-43286514D01*
X72508548Y-43358097D01*
X73321645Y-42545000D01*
X73680855Y-42545000D01*
X74493952Y-43358097D01*
X74737921Y-43286514D01*
X74858821Y-43031004D01*
X74927550Y-42756816D01*
X74941467Y-42474488D01*
X74931920Y-42410050D01*
X76832055Y-42410050D01*
X76927758Y-42674399D01*
X77217287Y-42815238D01*
X77528729Y-42896885D01*
X77850115Y-42916205D01*
X78169095Y-42872454D01*
X78473411Y-42767314D01*
X78647242Y-42674399D01*
X78742945Y-42410050D01*
X77787500Y-41454605D01*
X76832055Y-42410050D01*
X74931920Y-42410050D01*
X74900037Y-42194870D01*
X74804853Y-41928708D01*
X74737921Y-41803486D01*
X74493952Y-41731903D01*
X73680855Y-42545000D01*
X73321645Y-42545000D01*
X72508548Y-41731903D01*
X72264579Y-41803486D01*
X72143679Y-42058996D01*
X72074950Y-42333184D01*
X72061033Y-42615512D01*
X59696250Y-42615512D01*
X59696250Y-42403665D01*
X59641103Y-42126426D01*
X59532930Y-41865273D01*
X59375887Y-41630241D01*
X59177289Y-41431643D01*
X59185732Y-41430812D01*
X59305430Y-41394502D01*
X59415744Y-41335537D01*
X59512435Y-41256185D01*
X59591787Y-41159494D01*
X59650752Y-41049180D01*
X59687062Y-40929482D01*
X59699322Y-40805000D01*
X59699322Y-39863665D01*
X72066250Y-39863665D01*
X72066250Y-40146335D01*
X72121397Y-40423574D01*
X72229570Y-40684727D01*
X72386613Y-40919759D01*
X72586491Y-41119637D01*
X72820378Y-41275915D01*
X72759736Y-41308329D01*
X72688153Y-41552298D01*
X73501250Y-42365395D01*
X74314347Y-41552298D01*
X74251357Y-41337615D01*
X76146295Y-41337615D01*
X76190046Y-41656595D01*
X76295186Y-41960911D01*
X76388101Y-42134742D01*
X76652450Y-42230445D01*
X77607895Y-41275000D01*
X77967105Y-41275000D01*
X78922550Y-42230445D01*
X79186899Y-42134742D01*
X79327738Y-41845213D01*
X79409385Y-41533771D01*
X79428705Y-41212385D01*
X79384954Y-40893405D01*
X79279814Y-40589089D01*
X79186899Y-40415258D01*
X78922550Y-40319555D01*
X77967105Y-41275000D01*
X77607895Y-41275000D01*
X76652450Y-40319555D01*
X76388101Y-40415258D01*
X76247262Y-40704787D01*
X76165615Y-41016229D01*
X76146295Y-41337615D01*
X74251357Y-41337615D01*
X74242764Y-41308329D01*
X74178258Y-41277806D01*
X74180977Y-41276680D01*
X74416009Y-41119637D01*
X74615887Y-40919759D01*
X74772930Y-40684727D01*
X74881103Y-40423574D01*
X74936250Y-40146335D01*
X74936250Y-40139950D01*
X76832055Y-40139950D01*
X77787500Y-41095395D01*
X78742945Y-40139950D01*
X78647242Y-39875601D01*
X78357713Y-39734762D01*
X78046271Y-39653115D01*
X77724885Y-39633795D01*
X77405905Y-39677546D01*
X77101589Y-39782686D01*
X76927758Y-39875601D01*
X76832055Y-40139950D01*
X74936250Y-40139950D01*
X74936250Y-39863665D01*
X74881103Y-39586426D01*
X74772930Y-39325273D01*
X74615887Y-39090241D01*
X74416009Y-38890363D01*
X74180977Y-38733320D01*
X73919824Y-38625147D01*
X73642585Y-38570000D01*
X73359915Y-38570000D01*
X73082676Y-38625147D01*
X72821523Y-38733320D01*
X72586491Y-38890363D01*
X72386613Y-39090241D01*
X72229570Y-39325273D01*
X72121397Y-39586426D01*
X72066250Y-39863665D01*
X59699322Y-39863665D01*
X59699322Y-39205000D01*
X59687062Y-39080518D01*
X59650752Y-38960820D01*
X59591787Y-38850506D01*
X59512435Y-38753815D01*
X59415744Y-38674463D01*
X59305430Y-38615498D01*
X59185732Y-38579188D01*
X59061250Y-38566928D01*
X57461250Y-38566928D01*
X57336768Y-38579188D01*
X57217070Y-38615498D01*
X57106756Y-38674463D01*
X57010065Y-38753815D01*
X56930713Y-38850506D01*
X56871748Y-38960820D01*
X56835438Y-39080518D01*
X56823178Y-39205000D01*
X56483250Y-39205000D01*
X56483250Y-38227000D01*
X80041750Y-38227000D01*
X80041750Y-69723000D01*
G37*
X80041750Y-69723000D02*
X56483250Y-69723000D01*
X56483250Y-50023665D01*
X56826250Y-50023665D01*
X56826250Y-50306335D01*
X56881397Y-50583574D01*
X56989570Y-50844727D01*
X57146613Y-51079759D01*
X57346491Y-51279637D01*
X57579009Y-51435000D01*
X57346491Y-51590363D01*
X57146613Y-51790241D01*
X56989570Y-52025273D01*
X56881397Y-52286426D01*
X56826250Y-52563665D01*
X56826250Y-52846335D01*
X56881397Y-53123574D01*
X56989570Y-53384727D01*
X57146613Y-53619759D01*
X57346491Y-53819637D01*
X57579009Y-53975000D01*
X57346491Y-54130363D01*
X57146613Y-54330241D01*
X56989570Y-54565273D01*
X56881397Y-54826426D01*
X56826250Y-55103665D01*
X56826250Y-55386335D01*
X56881397Y-55663574D01*
X56989570Y-55924727D01*
X57146613Y-56159759D01*
X57346491Y-56359637D01*
X57579009Y-56515000D01*
X57346491Y-56670363D01*
X57146613Y-56870241D01*
X56989570Y-57105273D01*
X56881397Y-57366426D01*
X56826250Y-57643665D01*
X56826250Y-57926335D01*
X56881397Y-58203574D01*
X56989570Y-58464727D01*
X57146613Y-58699759D01*
X57346491Y-58899637D01*
X57579009Y-59055000D01*
X57346491Y-59210363D01*
X57146613Y-59410241D01*
X56989570Y-59645273D01*
X56881397Y-59906426D01*
X56826250Y-60183665D01*
X56826250Y-60466335D01*
X56881397Y-60743574D01*
X56989570Y-61004727D01*
X57146613Y-61239759D01*
X57346491Y-61439637D01*
X57579009Y-61595000D01*
X57346491Y-61750363D01*
X57146613Y-61950241D01*
X56989570Y-62185273D01*
X56881397Y-62446426D01*
X56826250Y-62723665D01*
X56826250Y-63006335D01*
X56881397Y-63283574D01*
X56989570Y-63544727D01*
X57146613Y-63779759D01*
X57346491Y-63979637D01*
X57579009Y-64135000D01*
X57346491Y-64290363D01*
X57146613Y-64490241D01*
X56989570Y-64725273D01*
X56881397Y-64986426D01*
X56826250Y-65263665D01*
X56826250Y-65546335D01*
X56881397Y-65823574D01*
X56989570Y-66084727D01*
X57146613Y-66319759D01*
X57346491Y-66519637D01*
X57579009Y-66675000D01*
X57346491Y-66830363D01*
X57146613Y-67030241D01*
X56989570Y-67265273D01*
X56881397Y-67526426D01*
X56826250Y-67803665D01*
X56826250Y-68086335D01*
X56881397Y-68363574D01*
X56989570Y-68624727D01*
X57146613Y-68859759D01*
X57346491Y-69059637D01*
X57581523Y-69216680D01*
X57842676Y-69324853D01*
X58119915Y-69380000D01*
X58402585Y-69380000D01*
X58679824Y-69324853D01*
X58940977Y-69216680D01*
X59176009Y-69059637D01*
X59375887Y-68859759D01*
X59532930Y-68624727D01*
X59641103Y-68363574D01*
X59696250Y-68086335D01*
X59696250Y-67803665D01*
X59641103Y-67526426D01*
X59532930Y-67265273D01*
X59375887Y-67030241D01*
X59176009Y-66830363D01*
X58943491Y-66675000D01*
X59176009Y-66519637D01*
X59375887Y-66319759D01*
X59532930Y-66084727D01*
X59641103Y-65823574D01*
X59696250Y-65546335D01*
X59696250Y-65263665D01*
X59641103Y-64986426D01*
X59532930Y-64725273D01*
X59375887Y-64490241D01*
X59176009Y-64290363D01*
X58943491Y-64135000D01*
X59176009Y-63979637D01*
X59375887Y-63779759D01*
X59532930Y-63544727D01*
X59641103Y-63283574D01*
X59696250Y-63006335D01*
X59696250Y-62723665D01*
X59641103Y-62446426D01*
X59532930Y-62185273D01*
X59375887Y-61950241D01*
X59176009Y-61750363D01*
X58943491Y-61595000D01*
X59176009Y-61439637D01*
X59375887Y-61239759D01*
X59532930Y-61004727D01*
X59641103Y-60743574D01*
X59696250Y-60466335D01*
X59696250Y-60183665D01*
X59641103Y-59906426D01*
X59532930Y-59645273D01*
X59375887Y-59410241D01*
X59176009Y-59210363D01*
X58943491Y-59055000D01*
X59176009Y-58899637D01*
X59375887Y-58699759D01*
X59532930Y-58464727D01*
X59641103Y-58203574D01*
X59696250Y-57926335D01*
X59696250Y-57643665D01*
X59641103Y-57366426D01*
X59532930Y-57105273D01*
X59375887Y-56870241D01*
X59176009Y-56670363D01*
X58943491Y-56515000D01*
X59176009Y-56359637D01*
X59375887Y-56159759D01*
X59532930Y-55924727D01*
X59641103Y-55663574D01*
X59696250Y-55386335D01*
X59696250Y-55103665D01*
X59641103Y-54826426D01*
X59532930Y-54565273D01*
X59375887Y-54330241D01*
X59176009Y-54130363D01*
X58943491Y-53975000D01*
X59176009Y-53819637D01*
X59375887Y-53619759D01*
X59532930Y-53384727D01*
X59641103Y-53123574D01*
X59696250Y-52846335D01*
X59696250Y-52563665D01*
X59641103Y-52286426D01*
X59532930Y-52025273D01*
X59375887Y-51790241D01*
X59176009Y-51590363D01*
X58943491Y-51435000D01*
X59176009Y-51279637D01*
X59375887Y-51079759D01*
X59532930Y-50844727D01*
X59641103Y-50583574D01*
X59696250Y-50306335D01*
X59696250Y-50023665D01*
X59641103Y-49746426D01*
X59532930Y-49485273D01*
X59375887Y-49250241D01*
X59176009Y-49050363D01*
X58942122Y-48894085D01*
X59002764Y-48861671D01*
X59074347Y-48617702D01*
X58261250Y-47804605D01*
X57448153Y-48617702D01*
X57519736Y-48861671D01*
X57584242Y-48892194D01*
X57581523Y-48893320D01*
X57346491Y-49050363D01*
X57146613Y-49250241D01*
X56989570Y-49485273D01*
X56881397Y-49746426D01*
X56826250Y-50023665D01*
X56483250Y-50023665D01*
X56483250Y-47695512D01*
X56821033Y-47695512D01*
X56862463Y-47975130D01*
X56957647Y-48241292D01*
X57024579Y-48366514D01*
X57268548Y-48438097D01*
X58081645Y-47625000D01*
X58440855Y-47625000D01*
X59253952Y-48438097D01*
X59497921Y-48366514D01*
X59618821Y-48111004D01*
X59687550Y-47836816D01*
X59701467Y-47554488D01*
X59660037Y-47274870D01*
X59564853Y-47008708D01*
X59497921Y-46883486D01*
X59253952Y-46811903D01*
X58440855Y-47625000D01*
X58081645Y-47625000D01*
X57268548Y-46811903D01*
X57024579Y-46883486D01*
X56903679Y-47138996D01*
X56834950Y-47413184D01*
X56821033Y-47695512D01*
X56483250Y-47695512D01*
X56483250Y-46077702D01*
X57448153Y-46077702D01*
X57519736Y-46321671D01*
X57585886Y-46352971D01*
X57519736Y-46388329D01*
X57448153Y-46632298D01*
X58261250Y-47445395D01*
X59074347Y-46632298D01*
X59002764Y-46388329D01*
X58936614Y-46357029D01*
X59002764Y-46321671D01*
X59074347Y-46077702D01*
X58261250Y-45264605D01*
X57448153Y-46077702D01*
X56483250Y-46077702D01*
X56483250Y-45155512D01*
X56821033Y-45155512D01*
X56862463Y-45435130D01*
X56957647Y-45701292D01*
X57024579Y-45826514D01*
X57268548Y-45898097D01*
X58081645Y-45085000D01*
X58440855Y-45085000D01*
X59253952Y-45898097D01*
X59497921Y-45826514D01*
X59618821Y-45571004D01*
X59687550Y-45296816D01*
X59701467Y-45014488D01*
X59690974Y-44943665D01*
X72066250Y-44943665D01*
X72066250Y-45226335D01*
X72121397Y-45503574D01*
X72229570Y-45764727D01*
X72386613Y-45999759D01*
X72586491Y-46199637D01*
X72819009Y-46355000D01*
X72586491Y-46510363D01*
X72386613Y-46710241D01*
X72229570Y-46945273D01*
X72121397Y-47206426D01*
X72066250Y-47483665D01*
X72066250Y-47766335D01*
X72121397Y-48043574D01*
X72229570Y-48304727D01*
X72386613Y-48539759D01*
X72586491Y-48739637D01*
X72819009Y-48895000D01*
X72586491Y-49050363D01*
X72386613Y-49250241D01*
X72229570Y-49485273D01*
X72121397Y-49746426D01*
X72066250Y-50023665D01*
X72066250Y-50306335D01*
X72121397Y-50583574D01*
X72229570Y-50844727D01*
X72386613Y-51079759D01*
X72586491Y-51279637D01*
X72819009Y-51435000D01*
X72586491Y-51590363D01*
X72386613Y-51790241D01*
X72229570Y-52025273D01*
X72121397Y-52286426D01*
X72066250Y-52563665D01*
X72066250Y-52846335D01*
X72121397Y-53123574D01*
X72229570Y-53384727D01*
X72386613Y-53619759D01*
X72586491Y-53819637D01*
X72819009Y-53975000D01*
X72586491Y-54130363D01*
X72386613Y-54330241D01*
X72229570Y-54565273D01*
X72121397Y-54826426D01*
X72066250Y-55103665D01*
X72066250Y-55386335D01*
X72121397Y-55663574D01*
X72229570Y-55924727D01*
X72386613Y-56159759D01*
X72586491Y-56359637D01*
X72819009Y-56515000D01*
X72586491Y-56670363D01*
X72386613Y-56870241D01*
X72229570Y-57105273D01*
X72121397Y-57366426D01*
X72066250Y-57643665D01*
X72066250Y-57926335D01*
X72121397Y-58203574D01*
X72229570Y-58464727D01*
X72386613Y-58699759D01*
X72586491Y-58899637D01*
X72819009Y-59055000D01*
X72586491Y-59210363D01*
X72386613Y-59410241D01*
X72229570Y-59645273D01*
X72121397Y-59906426D01*
X72066250Y-60183665D01*
X72066250Y-60466335D01*
X72121397Y-60743574D01*
X72229570Y-61004727D01*
X72386613Y-61239759D01*
X72586491Y-61439637D01*
X72819009Y-61595000D01*
X72586491Y-61750363D01*
X72386613Y-61950241D01*
X72229570Y-62185273D01*
X72121397Y-62446426D01*
X72066250Y-62723665D01*
X72066250Y-63006335D01*
X72121397Y-63283574D01*
X72229570Y-63544727D01*
X72386613Y-63779759D01*
X72586491Y-63979637D01*
X72819009Y-64135000D01*
X72586491Y-64290363D01*
X72386613Y-64490241D01*
X72229570Y-64725273D01*
X72121397Y-64986426D01*
X72066250Y-65263665D01*
X72066250Y-65546335D01*
X72121397Y-65823574D01*
X72229570Y-66084727D01*
X72386613Y-66319759D01*
X72586491Y-66519637D01*
X72819009Y-66675000D01*
X72586491Y-66830363D01*
X72386613Y-67030241D01*
X72229570Y-67265273D01*
X72121397Y-67526426D01*
X72066250Y-67803665D01*
X72066250Y-68086335D01*
X72121397Y-68363574D01*
X72229570Y-68624727D01*
X72386613Y-68859759D01*
X72586491Y-69059637D01*
X72821523Y-69216680D01*
X73082676Y-69324853D01*
X73359915Y-69380000D01*
X73642585Y-69380000D01*
X73919824Y-69324853D01*
X74180977Y-69216680D01*
X74416009Y-69059637D01*
X74615887Y-68859759D01*
X74772930Y-68624727D01*
X74881103Y-68363574D01*
X74936250Y-68086335D01*
X74936250Y-67803665D01*
X74881103Y-67526426D01*
X74772930Y-67265273D01*
X74615887Y-67030241D01*
X74416009Y-66830363D01*
X74183491Y-66675000D01*
X74416009Y-66519637D01*
X74615887Y-66319759D01*
X74772930Y-66084727D01*
X74881103Y-65823574D01*
X74936250Y-65546335D01*
X74936250Y-65263665D01*
X74881103Y-64986426D01*
X74772930Y-64725273D01*
X74615887Y-64490241D01*
X74416009Y-64290363D01*
X74183491Y-64135000D01*
X74416009Y-63979637D01*
X74615887Y-63779759D01*
X74772930Y-63544727D01*
X74881103Y-63283574D01*
X74936250Y-63006335D01*
X74936250Y-62723665D01*
X74881103Y-62446426D01*
X74772930Y-62185273D01*
X74615887Y-61950241D01*
X74416009Y-61750363D01*
X74183491Y-61595000D01*
X74416009Y-61439637D01*
X74615887Y-61239759D01*
X74772930Y-61004727D01*
X74881103Y-60743574D01*
X74936250Y-60466335D01*
X74936250Y-60183665D01*
X74881103Y-59906426D01*
X74772930Y-59645273D01*
X74615887Y-59410241D01*
X74416009Y-59210363D01*
X74183491Y-59055000D01*
X74416009Y-58899637D01*
X74615887Y-58699759D01*
X74772930Y-58464727D01*
X74881103Y-58203574D01*
X74936250Y-57926335D01*
X74936250Y-57643665D01*
X74881103Y-57366426D01*
X74772930Y-57105273D01*
X74615887Y-56870241D01*
X74416009Y-56670363D01*
X74183491Y-56515000D01*
X74416009Y-56359637D01*
X74615887Y-56159759D01*
X74772930Y-55924727D01*
X74881103Y-55663574D01*
X74936250Y-55386335D01*
X74936250Y-55103665D01*
X74881103Y-54826426D01*
X74772930Y-54565273D01*
X74615887Y-54330241D01*
X74416009Y-54130363D01*
X74183491Y-53975000D01*
X74416009Y-53819637D01*
X74615887Y-53619759D01*
X74772930Y-53384727D01*
X74881103Y-53123574D01*
X74936250Y-52846335D01*
X74936250Y-52563665D01*
X74881103Y-52286426D01*
X74772930Y-52025273D01*
X74615887Y-51790241D01*
X74416009Y-51590363D01*
X74183491Y-51435000D01*
X74416009Y-51279637D01*
X74615887Y-51079759D01*
X74772930Y-50844727D01*
X74881103Y-50583574D01*
X74936250Y-50306335D01*
X74936250Y-50023665D01*
X74881103Y-49746426D01*
X74772930Y-49485273D01*
X74615887Y-49250241D01*
X74416009Y-49050363D01*
X74183491Y-48895000D01*
X74416009Y-48739637D01*
X74615887Y-48539759D01*
X74772930Y-48304727D01*
X74881103Y-48043574D01*
X74936250Y-47766335D01*
X74936250Y-47483665D01*
X74881103Y-47206426D01*
X74772930Y-46945273D01*
X74615887Y-46710241D01*
X74416009Y-46510363D01*
X74183491Y-46355000D01*
X74416009Y-46199637D01*
X74615887Y-45999759D01*
X74719293Y-45845000D01*
X76149938Y-45845000D01*
X76149938Y-46084490D01*
X76162198Y-46208972D01*
X76198508Y-46328670D01*
X76257473Y-46438984D01*
X76336825Y-46535675D01*
X76433516Y-46615027D01*
X76543830Y-46673992D01*
X76663528Y-46710302D01*
X76788010Y-46722562D01*
X78786990Y-46722562D01*
X78911472Y-46710302D01*
X79031170Y-46673992D01*
X79141484Y-46615027D01*
X79238175Y-46535675D01*
X79317527Y-46438984D01*
X79376492Y-46328670D01*
X79412802Y-46208972D01*
X79425062Y-46084490D01*
X79425062Y-44085510D01*
X79412802Y-43961028D01*
X79376492Y-43841330D01*
X79317527Y-43731016D01*
X79238175Y-43634325D01*
X79141484Y-43554973D01*
X79031170Y-43496008D01*
X78911472Y-43459698D01*
X78786990Y-43447438D01*
X76788010Y-43447438D01*
X76663528Y-43459698D01*
X76543830Y-43496008D01*
X76433516Y-43554973D01*
X76336825Y-43634325D01*
X76257473Y-43731016D01*
X76198508Y-43841330D01*
X76162198Y-43961028D01*
X76149938Y-44085510D01*
X76149938Y-44325000D01*
X74719293Y-44325000D01*
X74615887Y-44170241D01*
X74416009Y-43970363D01*
X74182122Y-43814085D01*
X74242764Y-43781671D01*
X74314347Y-43537702D01*
X73501250Y-42724605D01*
X72688153Y-43537702D01*
X72759736Y-43781671D01*
X72824242Y-43812194D01*
X72821523Y-43813320D01*
X72586491Y-43970363D01*
X72386613Y-44170241D01*
X72229570Y-44405273D01*
X72121397Y-44666426D01*
X72066250Y-44943665D01*
X59690974Y-44943665D01*
X59660037Y-44734870D01*
X59564853Y-44468708D01*
X59497921Y-44343486D01*
X59253952Y-44271903D01*
X58440855Y-45085000D01*
X58081645Y-45085000D01*
X57268548Y-44271903D01*
X57024579Y-44343486D01*
X56903679Y-44598996D01*
X56834950Y-44873184D01*
X56821033Y-45155512D01*
X56483250Y-45155512D01*
X56483250Y-39205000D01*
X56823178Y-39205000D01*
X56823178Y-40805000D01*
X56835438Y-40929482D01*
X56871748Y-41049180D01*
X56930713Y-41159494D01*
X57010065Y-41256185D01*
X57106756Y-41335537D01*
X57217070Y-41394502D01*
X57336768Y-41430812D01*
X57345211Y-41431643D01*
X57146613Y-41630241D01*
X56989570Y-41865273D01*
X56881397Y-42126426D01*
X56826250Y-42403665D01*
X56826250Y-42686335D01*
X56881397Y-42963574D01*
X56989570Y-43224727D01*
X57146613Y-43459759D01*
X57346491Y-43659637D01*
X57580378Y-43815915D01*
X57519736Y-43848329D01*
X57448153Y-44092298D01*
X58261250Y-44905395D01*
X59074347Y-44092298D01*
X59002764Y-43848329D01*
X58938258Y-43817806D01*
X58940977Y-43816680D01*
X59176009Y-43659637D01*
X59375887Y-43459759D01*
X59532930Y-43224727D01*
X59641103Y-42963574D01*
X59696250Y-42686335D01*
X59696250Y-42615512D01*
X72061033Y-42615512D01*
X72102463Y-42895130D01*
X72197647Y-43161292D01*
X72264579Y-43286514D01*
X72508548Y-43358097D01*
X73321645Y-42545000D01*
X73680855Y-42545000D01*
X74493952Y-43358097D01*
X74737921Y-43286514D01*
X74858821Y-43031004D01*
X74927550Y-42756816D01*
X74941467Y-42474488D01*
X74931920Y-42410050D01*
X76832055Y-42410050D01*
X76927758Y-42674399D01*
X77217287Y-42815238D01*
X77528729Y-42896885D01*
X77850115Y-42916205D01*
X78169095Y-42872454D01*
X78473411Y-42767314D01*
X78647242Y-42674399D01*
X78742945Y-42410050D01*
X77787500Y-41454605D01*
X76832055Y-42410050D01*
X74931920Y-42410050D01*
X74900037Y-42194870D01*
X74804853Y-41928708D01*
X74737921Y-41803486D01*
X74493952Y-41731903D01*
X73680855Y-42545000D01*
X73321645Y-42545000D01*
X72508548Y-41731903D01*
X72264579Y-41803486D01*
X72143679Y-42058996D01*
X72074950Y-42333184D01*
X72061033Y-42615512D01*
X59696250Y-42615512D01*
X59696250Y-42403665D01*
X59641103Y-42126426D01*
X59532930Y-41865273D01*
X59375887Y-41630241D01*
X59177289Y-41431643D01*
X59185732Y-41430812D01*
X59305430Y-41394502D01*
X59415744Y-41335537D01*
X59512435Y-41256185D01*
X59591787Y-41159494D01*
X59650752Y-41049180D01*
X59687062Y-40929482D01*
X59699322Y-40805000D01*
X59699322Y-39863665D01*
X72066250Y-39863665D01*
X72066250Y-40146335D01*
X72121397Y-40423574D01*
X72229570Y-40684727D01*
X72386613Y-40919759D01*
X72586491Y-41119637D01*
X72820378Y-41275915D01*
X72759736Y-41308329D01*
X72688153Y-41552298D01*
X73501250Y-42365395D01*
X74314347Y-41552298D01*
X74251357Y-41337615D01*
X76146295Y-41337615D01*
X76190046Y-41656595D01*
X76295186Y-41960911D01*
X76388101Y-42134742D01*
X76652450Y-42230445D01*
X77607895Y-41275000D01*
X77967105Y-41275000D01*
X78922550Y-42230445D01*
X79186899Y-42134742D01*
X79327738Y-41845213D01*
X79409385Y-41533771D01*
X79428705Y-41212385D01*
X79384954Y-40893405D01*
X79279814Y-40589089D01*
X79186899Y-40415258D01*
X78922550Y-40319555D01*
X77967105Y-41275000D01*
X77607895Y-41275000D01*
X76652450Y-40319555D01*
X76388101Y-40415258D01*
X76247262Y-40704787D01*
X76165615Y-41016229D01*
X76146295Y-41337615D01*
X74251357Y-41337615D01*
X74242764Y-41308329D01*
X74178258Y-41277806D01*
X74180977Y-41276680D01*
X74416009Y-41119637D01*
X74615887Y-40919759D01*
X74772930Y-40684727D01*
X74881103Y-40423574D01*
X74936250Y-40146335D01*
X74936250Y-40139950D01*
X76832055Y-40139950D01*
X77787500Y-41095395D01*
X78742945Y-40139950D01*
X78647242Y-39875601D01*
X78357713Y-39734762D01*
X78046271Y-39653115D01*
X77724885Y-39633795D01*
X77405905Y-39677546D01*
X77101589Y-39782686D01*
X76927758Y-39875601D01*
X76832055Y-40139950D01*
X74936250Y-40139950D01*
X74936250Y-39863665D01*
X74881103Y-39586426D01*
X74772930Y-39325273D01*
X74615887Y-39090241D01*
X74416009Y-38890363D01*
X74180977Y-38733320D01*
X73919824Y-38625147D01*
X73642585Y-38570000D01*
X73359915Y-38570000D01*
X73082676Y-38625147D01*
X72821523Y-38733320D01*
X72586491Y-38890363D01*
X72386613Y-39090241D01*
X72229570Y-39325273D01*
X72121397Y-39586426D01*
X72066250Y-39863665D01*
X59699322Y-39863665D01*
X59699322Y-39205000D01*
X59687062Y-39080518D01*
X59650752Y-38960820D01*
X59591787Y-38850506D01*
X59512435Y-38753815D01*
X59415744Y-38674463D01*
X59305430Y-38615498D01*
X59185732Y-38579188D01*
X59061250Y-38566928D01*
X57461250Y-38566928D01*
X57336768Y-38579188D01*
X57217070Y-38615498D01*
X57106756Y-38674463D01*
X57010065Y-38753815D01*
X56930713Y-38850506D01*
X56871748Y-38960820D01*
X56835438Y-39080518D01*
X56823178Y-39205000D01*
X56483250Y-39205000D01*
X56483250Y-38227000D01*
X80041750Y-38227000D01*
X80041750Y-69723000D01*
M02*
