G04 #@! TF.GenerationSoftware,KiCad,Pcbnew,(5.1.5)-3*
G04 #@! TF.CreationDate,2020-05-01T19:28:23-04:00*
G04 #@! TF.ProjectId,BookerBoard,426f6f6b-6572-4426-9f61-72642e6b6963,rev?*
G04 #@! TF.SameCoordinates,Original*
G04 #@! TF.FileFunction,Soldermask,Top*
G04 #@! TF.FilePolarity,Negative*
%FSLAX46Y46*%
G04 Gerber Fmt 4.6, Leading zero omitted, Abs format (unit mm)*
G04 Created by KiCad (PCBNEW (5.1.5)-3) date 2020-05-01 19:28:23*
%MOMM*%
%LPD*%
G04 APERTURE LIST*
%ADD10C,0.100000*%
G04 APERTURE END LIST*
D10*
G36*
X236762049Y-108408616D02*
G01*
X236873234Y-108430732D01*
X237082703Y-108517497D01*
X237271220Y-108643460D01*
X237431540Y-108803780D01*
X237557503Y-108992297D01*
X237644268Y-109201766D01*
X237688500Y-109424136D01*
X237688500Y-109650864D01*
X237644268Y-109873234D01*
X237557503Y-110082703D01*
X237431540Y-110271220D01*
X237271220Y-110431540D01*
X237082703Y-110557503D01*
X236873234Y-110644268D01*
X236762049Y-110666384D01*
X236650865Y-110688500D01*
X236424135Y-110688500D01*
X236312951Y-110666384D01*
X236201766Y-110644268D01*
X235992297Y-110557503D01*
X235803780Y-110431540D01*
X235643460Y-110271220D01*
X235517497Y-110082703D01*
X235430732Y-109873234D01*
X235386500Y-109650864D01*
X235386500Y-109424136D01*
X235430732Y-109201766D01*
X235517497Y-108992297D01*
X235643460Y-108803780D01*
X235803780Y-108643460D01*
X235992297Y-108517497D01*
X236201766Y-108430732D01*
X236312951Y-108408616D01*
X236424135Y-108386500D01*
X236650865Y-108386500D01*
X236762049Y-108408616D01*
G37*
G36*
X150243299Y-108408616D02*
G01*
X150354484Y-108430732D01*
X150563953Y-108517497D01*
X150752470Y-108643460D01*
X150912790Y-108803780D01*
X151038753Y-108992297D01*
X151125518Y-109201766D01*
X151169750Y-109424136D01*
X151169750Y-109650864D01*
X151125518Y-109873234D01*
X151038753Y-110082703D01*
X150912790Y-110271220D01*
X150752470Y-110431540D01*
X150563953Y-110557503D01*
X150354484Y-110644268D01*
X150243299Y-110666384D01*
X150132115Y-110688500D01*
X149905385Y-110688500D01*
X149794201Y-110666384D01*
X149683016Y-110644268D01*
X149473547Y-110557503D01*
X149285030Y-110431540D01*
X149124710Y-110271220D01*
X148998747Y-110082703D01*
X148911982Y-109873234D01*
X148867750Y-109650864D01*
X148867750Y-109424136D01*
X148911982Y-109201766D01*
X148998747Y-108992297D01*
X149124710Y-108803780D01*
X149285030Y-108643460D01*
X149473547Y-108517497D01*
X149683016Y-108430732D01*
X149794201Y-108408616D01*
X149905385Y-108386500D01*
X150132115Y-108386500D01*
X150243299Y-108408616D01*
G37*
G36*
X53405799Y-108408616D02*
G01*
X53516984Y-108430732D01*
X53726453Y-108517497D01*
X53914970Y-108643460D01*
X54075290Y-108803780D01*
X54201253Y-108992297D01*
X54288018Y-109201766D01*
X54332250Y-109424136D01*
X54332250Y-109650864D01*
X54288018Y-109873234D01*
X54201253Y-110082703D01*
X54075290Y-110271220D01*
X53914970Y-110431540D01*
X53726453Y-110557503D01*
X53516984Y-110644268D01*
X53405799Y-110666384D01*
X53294615Y-110688500D01*
X53067885Y-110688500D01*
X52956701Y-110666384D01*
X52845516Y-110644268D01*
X52636047Y-110557503D01*
X52447530Y-110431540D01*
X52287210Y-110271220D01*
X52161247Y-110082703D01*
X52074482Y-109873234D01*
X52030250Y-109650864D01*
X52030250Y-109424136D01*
X52074482Y-109201766D01*
X52161247Y-108992297D01*
X52287210Y-108803780D01*
X52447530Y-108643460D01*
X52636047Y-108517497D01*
X52845516Y-108430732D01*
X52956701Y-108408616D01*
X53067885Y-108386500D01*
X53294615Y-108386500D01*
X53405799Y-108408616D01*
G37*
G36*
X139924549Y-108408616D02*
G01*
X140035734Y-108430732D01*
X140245203Y-108517497D01*
X140433720Y-108643460D01*
X140594040Y-108803780D01*
X140720003Y-108992297D01*
X140806768Y-109201766D01*
X140851000Y-109424136D01*
X140851000Y-109650864D01*
X140806768Y-109873234D01*
X140720003Y-110082703D01*
X140594040Y-110271220D01*
X140433720Y-110431540D01*
X140245203Y-110557503D01*
X140035734Y-110644268D01*
X139924549Y-110666384D01*
X139813365Y-110688500D01*
X139586635Y-110688500D01*
X139475451Y-110666384D01*
X139364266Y-110644268D01*
X139154797Y-110557503D01*
X138966280Y-110431540D01*
X138805960Y-110271220D01*
X138679997Y-110082703D01*
X138593232Y-109873234D01*
X138549000Y-109650864D01*
X138549000Y-109424136D01*
X138593232Y-109201766D01*
X138679997Y-108992297D01*
X138805960Y-108803780D01*
X138966280Y-108643460D01*
X139154797Y-108517497D01*
X139364266Y-108430732D01*
X139475451Y-108408616D01*
X139586635Y-108386500D01*
X139813365Y-108386500D01*
X139924549Y-108408616D01*
G37*
G36*
X73105132Y-106963607D02*
G01*
X73260004Y-107027757D01*
X73399385Y-107120889D01*
X73517919Y-107239423D01*
X73611051Y-107378804D01*
X73675201Y-107533676D01*
X73707904Y-107698088D01*
X73707904Y-107865720D01*
X73675201Y-108030132D01*
X73611051Y-108185004D01*
X73517919Y-108324385D01*
X73399385Y-108442919D01*
X73260004Y-108536051D01*
X73105132Y-108600201D01*
X72940720Y-108632904D01*
X72773088Y-108632904D01*
X72608676Y-108600201D01*
X72453804Y-108536051D01*
X72314423Y-108442919D01*
X72195889Y-108324385D01*
X72102757Y-108185004D01*
X72038607Y-108030132D01*
X72005904Y-107865720D01*
X72005904Y-107698088D01*
X72038607Y-107533676D01*
X72102757Y-107378804D01*
X72195889Y-107239423D01*
X72314423Y-107120889D01*
X72453804Y-107027757D01*
X72608676Y-106963607D01*
X72773088Y-106930904D01*
X72940720Y-106930904D01*
X73105132Y-106963607D01*
G37*
G36*
X69136382Y-106963607D02*
G01*
X69291254Y-107027757D01*
X69430635Y-107120889D01*
X69549169Y-107239423D01*
X69642301Y-107378804D01*
X69706451Y-107533676D01*
X69739154Y-107698088D01*
X69739154Y-107865720D01*
X69706451Y-108030132D01*
X69642301Y-108185004D01*
X69549169Y-108324385D01*
X69430635Y-108442919D01*
X69291254Y-108536051D01*
X69136382Y-108600201D01*
X68971970Y-108632904D01*
X68804338Y-108632904D01*
X68639926Y-108600201D01*
X68485054Y-108536051D01*
X68345673Y-108442919D01*
X68227139Y-108324385D01*
X68134007Y-108185004D01*
X68069857Y-108030132D01*
X68037154Y-107865720D01*
X68037154Y-107698088D01*
X68069857Y-107533676D01*
X68134007Y-107378804D01*
X68227139Y-107239423D01*
X68345673Y-107120889D01*
X68485054Y-107027757D01*
X68639926Y-106963607D01*
X68804338Y-106930904D01*
X68971970Y-106930904D01*
X69136382Y-106963607D01*
G37*
G36*
X65167632Y-106963607D02*
G01*
X65322504Y-107027757D01*
X65461885Y-107120889D01*
X65580419Y-107239423D01*
X65673551Y-107378804D01*
X65737701Y-107533676D01*
X65770404Y-107698088D01*
X65770404Y-107865720D01*
X65737701Y-108030132D01*
X65673551Y-108185004D01*
X65580419Y-108324385D01*
X65461885Y-108442919D01*
X65322504Y-108536051D01*
X65167632Y-108600201D01*
X65003220Y-108632904D01*
X64835588Y-108632904D01*
X64671176Y-108600201D01*
X64516304Y-108536051D01*
X64376923Y-108442919D01*
X64258389Y-108324385D01*
X64165257Y-108185004D01*
X64101107Y-108030132D01*
X64068404Y-107865720D01*
X64068404Y-107698088D01*
X64101107Y-107533676D01*
X64165257Y-107378804D01*
X64258389Y-107239423D01*
X64376923Y-107120889D01*
X64516304Y-107027757D01*
X64671176Y-106963607D01*
X64835588Y-106930904D01*
X65003220Y-106930904D01*
X65167632Y-106963607D01*
G37*
G36*
X129183974Y-100427434D02*
G01*
X129401974Y-100517733D01*
X129556123Y-100581583D01*
X129891048Y-100805373D01*
X130175877Y-101090202D01*
X130399667Y-101425127D01*
X130432062Y-101503336D01*
X130553816Y-101797276D01*
X130632400Y-102192344D01*
X130632400Y-102595156D01*
X130553816Y-102990224D01*
X130502951Y-103113022D01*
X130399667Y-103362373D01*
X130175877Y-103697298D01*
X129891048Y-103982127D01*
X129556123Y-104205917D01*
X129401974Y-104269767D01*
X129183974Y-104360066D01*
X128788906Y-104438650D01*
X128386094Y-104438650D01*
X127991026Y-104360066D01*
X127773026Y-104269767D01*
X127618877Y-104205917D01*
X127283952Y-103982127D01*
X126999123Y-103697298D01*
X126775333Y-103362373D01*
X126672049Y-103113022D01*
X126621184Y-102990224D01*
X126542600Y-102595156D01*
X126542600Y-102192344D01*
X126621184Y-101797276D01*
X126742938Y-101503336D01*
X126775333Y-101425127D01*
X126999123Y-101090202D01*
X127283952Y-100805373D01*
X127618877Y-100581583D01*
X127773026Y-100517733D01*
X127991026Y-100427434D01*
X128386094Y-100348850D01*
X128788906Y-100348850D01*
X129183974Y-100427434D01*
G37*
G36*
X110133974Y-100427434D02*
G01*
X110351974Y-100517733D01*
X110506123Y-100581583D01*
X110841048Y-100805373D01*
X111125877Y-101090202D01*
X111349667Y-101425127D01*
X111382062Y-101503336D01*
X111503816Y-101797276D01*
X111582400Y-102192344D01*
X111582400Y-102595156D01*
X111503816Y-102990224D01*
X111452951Y-103113022D01*
X111349667Y-103362373D01*
X111125877Y-103697298D01*
X110841048Y-103982127D01*
X110506123Y-104205917D01*
X110351974Y-104269767D01*
X110133974Y-104360066D01*
X109738906Y-104438650D01*
X109336094Y-104438650D01*
X108941026Y-104360066D01*
X108723026Y-104269767D01*
X108568877Y-104205917D01*
X108233952Y-103982127D01*
X107949123Y-103697298D01*
X107725333Y-103362373D01*
X107622049Y-103113022D01*
X107571184Y-102990224D01*
X107492600Y-102595156D01*
X107492600Y-102192344D01*
X107571184Y-101797276D01*
X107692938Y-101503336D01*
X107725333Y-101425127D01*
X107949123Y-101090202D01*
X108233952Y-100805373D01*
X108568877Y-100581583D01*
X108723026Y-100517733D01*
X108941026Y-100427434D01*
X109336094Y-100348850D01*
X109738906Y-100348850D01*
X110133974Y-100427434D01*
G37*
G36*
X91083974Y-100427434D02*
G01*
X91301974Y-100517733D01*
X91456123Y-100581583D01*
X91791048Y-100805373D01*
X92075877Y-101090202D01*
X92299667Y-101425127D01*
X92332062Y-101503336D01*
X92453816Y-101797276D01*
X92532400Y-102192344D01*
X92532400Y-102595156D01*
X92453816Y-102990224D01*
X92402951Y-103113022D01*
X92299667Y-103362373D01*
X92075877Y-103697298D01*
X91791048Y-103982127D01*
X91456123Y-104205917D01*
X91301974Y-104269767D01*
X91083974Y-104360066D01*
X90688906Y-104438650D01*
X90286094Y-104438650D01*
X89891026Y-104360066D01*
X89673026Y-104269767D01*
X89518877Y-104205917D01*
X89183952Y-103982127D01*
X88899123Y-103697298D01*
X88675333Y-103362373D01*
X88572049Y-103113022D01*
X88521184Y-102990224D01*
X88442600Y-102595156D01*
X88442600Y-102192344D01*
X88521184Y-101797276D01*
X88642938Y-101503336D01*
X88675333Y-101425127D01*
X88899123Y-101090202D01*
X89183952Y-100805373D01*
X89518877Y-100581583D01*
X89673026Y-100517733D01*
X89891026Y-100427434D01*
X90286094Y-100348850D01*
X90688906Y-100348850D01*
X91083974Y-100427434D01*
G37*
G36*
X60734746Y-102393750D02*
G01*
X59531250Y-103597246D01*
X58327754Y-102393750D01*
X59531250Y-101190254D01*
X60734746Y-102393750D01*
G37*
G36*
X64703496Y-102393750D02*
G01*
X63500000Y-103597246D01*
X62296504Y-102393750D01*
X63500000Y-101190254D01*
X64703496Y-102393750D01*
G37*
G36*
X68672246Y-102393750D02*
G01*
X67468750Y-103597246D01*
X66265254Y-102393750D01*
X67468750Y-101190254D01*
X68672246Y-102393750D01*
G37*
G36*
X95837604Y-101503335D02*
G01*
X96006126Y-101573139D01*
X96157791Y-101674478D01*
X96286772Y-101803459D01*
X96388111Y-101955124D01*
X96457915Y-102123646D01*
X96493500Y-102302547D01*
X96493500Y-102484953D01*
X96457915Y-102663854D01*
X96388111Y-102832376D01*
X96286772Y-102984041D01*
X96157791Y-103113022D01*
X96006126Y-103214361D01*
X95837604Y-103284165D01*
X95658703Y-103319750D01*
X95476297Y-103319750D01*
X95297396Y-103284165D01*
X95128874Y-103214361D01*
X94977209Y-103113022D01*
X94848228Y-102984041D01*
X94746889Y-102832376D01*
X94677085Y-102663854D01*
X94641500Y-102484953D01*
X94641500Y-102302547D01*
X94677085Y-102123646D01*
X94746889Y-101955124D01*
X94848228Y-101803459D01*
X94977209Y-101674478D01*
X95128874Y-101573139D01*
X95297396Y-101503335D01*
X95476297Y-101467750D01*
X95658703Y-101467750D01*
X95837604Y-101503335D01*
G37*
G36*
X133937604Y-101503335D02*
G01*
X134106126Y-101573139D01*
X134257791Y-101674478D01*
X134386772Y-101803459D01*
X134488111Y-101955124D01*
X134557915Y-102123646D01*
X134593500Y-102302547D01*
X134593500Y-102484953D01*
X134557915Y-102663854D01*
X134488111Y-102832376D01*
X134386772Y-102984041D01*
X134257791Y-103113022D01*
X134106126Y-103214361D01*
X133937604Y-103284165D01*
X133758703Y-103319750D01*
X133576297Y-103319750D01*
X133397396Y-103284165D01*
X133228874Y-103214361D01*
X133077209Y-103113022D01*
X132948228Y-102984041D01*
X132846889Y-102832376D01*
X132777085Y-102663854D01*
X132741500Y-102484953D01*
X132741500Y-102302547D01*
X132777085Y-102123646D01*
X132846889Y-101955124D01*
X132948228Y-101803459D01*
X133077209Y-101674478D01*
X133228874Y-101573139D01*
X133397396Y-101503335D01*
X133576297Y-101467750D01*
X133758703Y-101467750D01*
X133937604Y-101503335D01*
G37*
G36*
X123777604Y-101503335D02*
G01*
X123946126Y-101573139D01*
X124097791Y-101674478D01*
X124226772Y-101803459D01*
X124328111Y-101955124D01*
X124397915Y-102123646D01*
X124433500Y-102302547D01*
X124433500Y-102484953D01*
X124397915Y-102663854D01*
X124328111Y-102832376D01*
X124226772Y-102984041D01*
X124097791Y-103113022D01*
X123946126Y-103214361D01*
X123777604Y-103284165D01*
X123598703Y-103319750D01*
X123416297Y-103319750D01*
X123237396Y-103284165D01*
X123068874Y-103214361D01*
X122917209Y-103113022D01*
X122788228Y-102984041D01*
X122686889Y-102832376D01*
X122617085Y-102663854D01*
X122581500Y-102484953D01*
X122581500Y-102302547D01*
X122617085Y-102123646D01*
X122686889Y-101955124D01*
X122788228Y-101803459D01*
X122917209Y-101674478D01*
X123068874Y-101573139D01*
X123237396Y-101503335D01*
X123416297Y-101467750D01*
X123598703Y-101467750D01*
X123777604Y-101503335D01*
G37*
G36*
X104727604Y-101503335D02*
G01*
X104896126Y-101573139D01*
X105047791Y-101674478D01*
X105176772Y-101803459D01*
X105278111Y-101955124D01*
X105347915Y-102123646D01*
X105383500Y-102302547D01*
X105383500Y-102484953D01*
X105347915Y-102663854D01*
X105278111Y-102832376D01*
X105176772Y-102984041D01*
X105047791Y-103113022D01*
X104896126Y-103214361D01*
X104727604Y-103284165D01*
X104548703Y-103319750D01*
X104366297Y-103319750D01*
X104187396Y-103284165D01*
X104018874Y-103214361D01*
X103867209Y-103113022D01*
X103738228Y-102984041D01*
X103636889Y-102832376D01*
X103567085Y-102663854D01*
X103531500Y-102484953D01*
X103531500Y-102302547D01*
X103567085Y-102123646D01*
X103636889Y-101955124D01*
X103738228Y-101803459D01*
X103867209Y-101674478D01*
X104018874Y-101573139D01*
X104187396Y-101503335D01*
X104366297Y-101467750D01*
X104548703Y-101467750D01*
X104727604Y-101503335D01*
G37*
G36*
X85677604Y-101503335D02*
G01*
X85846126Y-101573139D01*
X85997791Y-101674478D01*
X86126772Y-101803459D01*
X86228111Y-101955124D01*
X86297915Y-102123646D01*
X86333500Y-102302547D01*
X86333500Y-102484953D01*
X86297915Y-102663854D01*
X86228111Y-102832376D01*
X86126772Y-102984041D01*
X85997791Y-103113022D01*
X85846126Y-103214361D01*
X85677604Y-103284165D01*
X85498703Y-103319750D01*
X85316297Y-103319750D01*
X85137396Y-103284165D01*
X84968874Y-103214361D01*
X84817209Y-103113022D01*
X84688228Y-102984041D01*
X84586889Y-102832376D01*
X84517085Y-102663854D01*
X84481500Y-102484953D01*
X84481500Y-102302547D01*
X84517085Y-102123646D01*
X84586889Y-101955124D01*
X84688228Y-101803459D01*
X84817209Y-101674478D01*
X84968874Y-101573139D01*
X85137396Y-101503335D01*
X85316297Y-101467750D01*
X85498703Y-101467750D01*
X85677604Y-101503335D01*
G37*
G36*
X114887604Y-101503335D02*
G01*
X115056126Y-101573139D01*
X115207791Y-101674478D01*
X115336772Y-101803459D01*
X115438111Y-101955124D01*
X115507915Y-102123646D01*
X115543500Y-102302547D01*
X115543500Y-102484953D01*
X115507915Y-102663854D01*
X115438111Y-102832376D01*
X115336772Y-102984041D01*
X115207791Y-103113022D01*
X115056126Y-103214361D01*
X114887604Y-103284165D01*
X114708703Y-103319750D01*
X114526297Y-103319750D01*
X114347396Y-103284165D01*
X114178874Y-103214361D01*
X114027209Y-103113022D01*
X113898228Y-102984041D01*
X113796889Y-102832376D01*
X113727085Y-102663854D01*
X113691500Y-102484953D01*
X113691500Y-102302547D01*
X113727085Y-102123646D01*
X113796889Y-101955124D01*
X113898228Y-101803459D01*
X114027209Y-101674478D01*
X114178874Y-101573139D01*
X114347396Y-101503335D01*
X114526297Y-101467750D01*
X114708703Y-101467750D01*
X114887604Y-101503335D01*
G37*
G36*
X73105132Y-97438607D02*
G01*
X73260004Y-97502757D01*
X73399385Y-97595889D01*
X73517919Y-97714423D01*
X73611051Y-97853804D01*
X73675201Y-98008676D01*
X73707904Y-98173088D01*
X73707904Y-98340720D01*
X73675201Y-98505132D01*
X73611051Y-98660004D01*
X73517919Y-98799385D01*
X73399385Y-98917919D01*
X73260004Y-99011051D01*
X73105132Y-99075201D01*
X72940720Y-99107904D01*
X72773088Y-99107904D01*
X72608676Y-99075201D01*
X72453804Y-99011051D01*
X72314423Y-98917919D01*
X72195889Y-98799385D01*
X72102757Y-98660004D01*
X72038607Y-98505132D01*
X72005904Y-98340720D01*
X72005904Y-98173088D01*
X72038607Y-98008676D01*
X72102757Y-97853804D01*
X72195889Y-97714423D01*
X72314423Y-97595889D01*
X72453804Y-97502757D01*
X72608676Y-97438607D01*
X72773088Y-97405904D01*
X72940720Y-97405904D01*
X73105132Y-97438607D01*
G37*
G36*
X65167632Y-97438607D02*
G01*
X65322504Y-97502757D01*
X65461885Y-97595889D01*
X65580419Y-97714423D01*
X65673551Y-97853804D01*
X65737701Y-98008676D01*
X65770404Y-98173088D01*
X65770404Y-98340720D01*
X65737701Y-98505132D01*
X65673551Y-98660004D01*
X65580419Y-98799385D01*
X65461885Y-98917919D01*
X65322504Y-99011051D01*
X65167632Y-99075201D01*
X65003220Y-99107904D01*
X64835588Y-99107904D01*
X64671176Y-99075201D01*
X64516304Y-99011051D01*
X64376923Y-98917919D01*
X64258389Y-98799385D01*
X64165257Y-98660004D01*
X64101107Y-98505132D01*
X64068404Y-98340720D01*
X64068404Y-98173088D01*
X64101107Y-98008676D01*
X64165257Y-97853804D01*
X64258389Y-97714423D01*
X64376923Y-97595889D01*
X64516304Y-97502757D01*
X64671176Y-97438607D01*
X64835588Y-97405904D01*
X65003220Y-97405904D01*
X65167632Y-97438607D01*
G37*
G36*
X69136382Y-97438607D02*
G01*
X69291254Y-97502757D01*
X69430635Y-97595889D01*
X69549169Y-97714423D01*
X69642301Y-97853804D01*
X69706451Y-98008676D01*
X69739154Y-98173088D01*
X69739154Y-98340720D01*
X69706451Y-98505132D01*
X69642301Y-98660004D01*
X69549169Y-98799385D01*
X69430635Y-98917919D01*
X69291254Y-99011051D01*
X69136382Y-99075201D01*
X68971970Y-99107904D01*
X68804338Y-99107904D01*
X68639926Y-99075201D01*
X68485054Y-99011051D01*
X68345673Y-98917919D01*
X68227139Y-98799385D01*
X68134007Y-98660004D01*
X68069857Y-98505132D01*
X68037154Y-98340720D01*
X68037154Y-98173088D01*
X68069857Y-98008676D01*
X68134007Y-97853804D01*
X68227139Y-97714423D01*
X68345673Y-97595889D01*
X68485054Y-97502757D01*
X68639926Y-97438607D01*
X68804338Y-97405904D01*
X68971970Y-97405904D01*
X69136382Y-97438607D01*
G37*
G36*
X60734746Y-92868750D02*
G01*
X59531250Y-94072246D01*
X58327754Y-92868750D01*
X59531250Y-91665254D01*
X60734746Y-92868750D01*
G37*
G36*
X68672246Y-92868750D02*
G01*
X67468750Y-94072246D01*
X66265254Y-92868750D01*
X67468750Y-91665254D01*
X68672246Y-92868750D01*
G37*
G36*
X64703496Y-92868750D02*
G01*
X63500000Y-94072246D01*
X62296504Y-92868750D01*
X63500000Y-91665254D01*
X64703496Y-92868750D01*
G37*
G36*
X65167632Y-87913607D02*
G01*
X65322504Y-87977757D01*
X65461885Y-88070889D01*
X65580419Y-88189423D01*
X65673551Y-88328804D01*
X65737701Y-88483676D01*
X65770404Y-88648088D01*
X65770404Y-88815720D01*
X65737701Y-88980132D01*
X65673551Y-89135004D01*
X65580419Y-89274385D01*
X65461885Y-89392919D01*
X65322504Y-89486051D01*
X65167632Y-89550201D01*
X65003220Y-89582904D01*
X64835588Y-89582904D01*
X64671176Y-89550201D01*
X64516304Y-89486051D01*
X64376923Y-89392919D01*
X64258389Y-89274385D01*
X64165257Y-89135004D01*
X64101107Y-88980132D01*
X64068404Y-88815720D01*
X64068404Y-88648088D01*
X64101107Y-88483676D01*
X64165257Y-88328804D01*
X64258389Y-88189423D01*
X64376923Y-88070889D01*
X64516304Y-87977757D01*
X64671176Y-87913607D01*
X64835588Y-87880904D01*
X65003220Y-87880904D01*
X65167632Y-87913607D01*
G37*
G36*
X69136382Y-87913607D02*
G01*
X69291254Y-87977757D01*
X69430635Y-88070889D01*
X69549169Y-88189423D01*
X69642301Y-88328804D01*
X69706451Y-88483676D01*
X69739154Y-88648088D01*
X69739154Y-88815720D01*
X69706451Y-88980132D01*
X69642301Y-89135004D01*
X69549169Y-89274385D01*
X69430635Y-89392919D01*
X69291254Y-89486051D01*
X69136382Y-89550201D01*
X68971970Y-89582904D01*
X68804338Y-89582904D01*
X68639926Y-89550201D01*
X68485054Y-89486051D01*
X68345673Y-89392919D01*
X68227139Y-89274385D01*
X68134007Y-89135004D01*
X68069857Y-88980132D01*
X68037154Y-88815720D01*
X68037154Y-88648088D01*
X68069857Y-88483676D01*
X68134007Y-88328804D01*
X68227139Y-88189423D01*
X68345673Y-88070889D01*
X68485054Y-87977757D01*
X68639926Y-87913607D01*
X68804338Y-87880904D01*
X68971970Y-87880904D01*
X69136382Y-87913607D01*
G37*
G36*
X73105132Y-87913607D02*
G01*
X73260004Y-87977757D01*
X73399385Y-88070889D01*
X73517919Y-88189423D01*
X73611051Y-88328804D01*
X73675201Y-88483676D01*
X73707904Y-88648088D01*
X73707904Y-88815720D01*
X73675201Y-88980132D01*
X73611051Y-89135004D01*
X73517919Y-89274385D01*
X73399385Y-89392919D01*
X73260004Y-89486051D01*
X73105132Y-89550201D01*
X72940720Y-89582904D01*
X72773088Y-89582904D01*
X72608676Y-89550201D01*
X72453804Y-89486051D01*
X72314423Y-89392919D01*
X72195889Y-89274385D01*
X72102757Y-89135004D01*
X72038607Y-88980132D01*
X72005904Y-88815720D01*
X72005904Y-88648088D01*
X72038607Y-88483676D01*
X72102757Y-88328804D01*
X72195889Y-88189423D01*
X72314423Y-88070889D01*
X72453804Y-87977757D01*
X72608676Y-87913607D01*
X72773088Y-87880904D01*
X72940720Y-87880904D01*
X73105132Y-87913607D01*
G37*
G36*
X129183974Y-81377434D02*
G01*
X129401974Y-81467733D01*
X129556123Y-81531583D01*
X129891048Y-81755373D01*
X130175877Y-82040202D01*
X130399667Y-82375127D01*
X130432062Y-82453336D01*
X130553816Y-82747276D01*
X130632400Y-83142344D01*
X130632400Y-83545156D01*
X130553816Y-83940224D01*
X130502951Y-84063022D01*
X130399667Y-84312373D01*
X130175877Y-84647298D01*
X129891048Y-84932127D01*
X129556123Y-85155917D01*
X129401974Y-85219767D01*
X129183974Y-85310066D01*
X128788906Y-85388650D01*
X128386094Y-85388650D01*
X127991026Y-85310066D01*
X127773026Y-85219767D01*
X127618877Y-85155917D01*
X127283952Y-84932127D01*
X126999123Y-84647298D01*
X126775333Y-84312373D01*
X126672049Y-84063022D01*
X126621184Y-83940224D01*
X126542600Y-83545156D01*
X126542600Y-83142344D01*
X126621184Y-82747276D01*
X126742938Y-82453336D01*
X126775333Y-82375127D01*
X126999123Y-82040202D01*
X127283952Y-81755373D01*
X127618877Y-81531583D01*
X127773026Y-81467733D01*
X127991026Y-81377434D01*
X128386094Y-81298850D01*
X128788906Y-81298850D01*
X129183974Y-81377434D01*
G37*
G36*
X91083974Y-81377434D02*
G01*
X91301974Y-81467733D01*
X91456123Y-81531583D01*
X91791048Y-81755373D01*
X92075877Y-82040202D01*
X92299667Y-82375127D01*
X92332062Y-82453336D01*
X92453816Y-82747276D01*
X92532400Y-83142344D01*
X92532400Y-83545156D01*
X92453816Y-83940224D01*
X92402951Y-84063022D01*
X92299667Y-84312373D01*
X92075877Y-84647298D01*
X91791048Y-84932127D01*
X91456123Y-85155917D01*
X91301974Y-85219767D01*
X91083974Y-85310066D01*
X90688906Y-85388650D01*
X90286094Y-85388650D01*
X89891026Y-85310066D01*
X89673026Y-85219767D01*
X89518877Y-85155917D01*
X89183952Y-84932127D01*
X88899123Y-84647298D01*
X88675333Y-84312373D01*
X88572049Y-84063022D01*
X88521184Y-83940224D01*
X88442600Y-83545156D01*
X88442600Y-83142344D01*
X88521184Y-82747276D01*
X88642938Y-82453336D01*
X88675333Y-82375127D01*
X88899123Y-82040202D01*
X89183952Y-81755373D01*
X89518877Y-81531583D01*
X89673026Y-81467733D01*
X89891026Y-81377434D01*
X90286094Y-81298850D01*
X90688906Y-81298850D01*
X91083974Y-81377434D01*
G37*
G36*
X110133974Y-81377434D02*
G01*
X110351974Y-81467733D01*
X110506123Y-81531583D01*
X110841048Y-81755373D01*
X111125877Y-82040202D01*
X111349667Y-82375127D01*
X111382062Y-82453336D01*
X111503816Y-82747276D01*
X111582400Y-83142344D01*
X111582400Y-83545156D01*
X111503816Y-83940224D01*
X111452951Y-84063022D01*
X111349667Y-84312373D01*
X111125877Y-84647298D01*
X110841048Y-84932127D01*
X110506123Y-85155917D01*
X110351974Y-85219767D01*
X110133974Y-85310066D01*
X109738906Y-85388650D01*
X109336094Y-85388650D01*
X108941026Y-85310066D01*
X108723026Y-85219767D01*
X108568877Y-85155917D01*
X108233952Y-84932127D01*
X107949123Y-84647298D01*
X107725333Y-84312373D01*
X107622049Y-84063022D01*
X107571184Y-83940224D01*
X107492600Y-83545156D01*
X107492600Y-83142344D01*
X107571184Y-82747276D01*
X107692938Y-82453336D01*
X107725333Y-82375127D01*
X107949123Y-82040202D01*
X108233952Y-81755373D01*
X108568877Y-81531583D01*
X108723026Y-81467733D01*
X108941026Y-81377434D01*
X109336094Y-81298850D01*
X109738906Y-81298850D01*
X110133974Y-81377434D01*
G37*
G36*
X68672246Y-83343750D02*
G01*
X67468750Y-84547246D01*
X66265254Y-83343750D01*
X67468750Y-82140254D01*
X68672246Y-83343750D01*
G37*
G36*
X64703496Y-83343750D02*
G01*
X63500000Y-84547246D01*
X62296504Y-83343750D01*
X63500000Y-82140254D01*
X64703496Y-83343750D01*
G37*
G36*
X60734746Y-83343750D02*
G01*
X59531250Y-84547246D01*
X58327754Y-83343750D01*
X59531250Y-82140254D01*
X60734746Y-83343750D01*
G37*
G36*
X123777604Y-82453335D02*
G01*
X123946126Y-82523139D01*
X124097791Y-82624478D01*
X124226772Y-82753459D01*
X124328111Y-82905124D01*
X124397915Y-83073646D01*
X124433500Y-83252547D01*
X124433500Y-83434953D01*
X124397915Y-83613854D01*
X124328111Y-83782376D01*
X124226772Y-83934041D01*
X124097791Y-84063022D01*
X123946126Y-84164361D01*
X123777604Y-84234165D01*
X123598703Y-84269750D01*
X123416297Y-84269750D01*
X123237396Y-84234165D01*
X123068874Y-84164361D01*
X122917209Y-84063022D01*
X122788228Y-83934041D01*
X122686889Y-83782376D01*
X122617085Y-83613854D01*
X122581500Y-83434953D01*
X122581500Y-83252547D01*
X122617085Y-83073646D01*
X122686889Y-82905124D01*
X122788228Y-82753459D01*
X122917209Y-82624478D01*
X123068874Y-82523139D01*
X123237396Y-82453335D01*
X123416297Y-82417750D01*
X123598703Y-82417750D01*
X123777604Y-82453335D01*
G37*
G36*
X104727604Y-82453335D02*
G01*
X104896126Y-82523139D01*
X105047791Y-82624478D01*
X105176772Y-82753459D01*
X105278111Y-82905124D01*
X105347915Y-83073646D01*
X105383500Y-83252547D01*
X105383500Y-83434953D01*
X105347915Y-83613854D01*
X105278111Y-83782376D01*
X105176772Y-83934041D01*
X105047791Y-84063022D01*
X104896126Y-84164361D01*
X104727604Y-84234165D01*
X104548703Y-84269750D01*
X104366297Y-84269750D01*
X104187396Y-84234165D01*
X104018874Y-84164361D01*
X103867209Y-84063022D01*
X103738228Y-83934041D01*
X103636889Y-83782376D01*
X103567085Y-83613854D01*
X103531500Y-83434953D01*
X103531500Y-83252547D01*
X103567085Y-83073646D01*
X103636889Y-82905124D01*
X103738228Y-82753459D01*
X103867209Y-82624478D01*
X104018874Y-82523139D01*
X104187396Y-82453335D01*
X104366297Y-82417750D01*
X104548703Y-82417750D01*
X104727604Y-82453335D01*
G37*
G36*
X133937604Y-82453335D02*
G01*
X134106126Y-82523139D01*
X134257791Y-82624478D01*
X134386772Y-82753459D01*
X134488111Y-82905124D01*
X134557915Y-83073646D01*
X134593500Y-83252547D01*
X134593500Y-83434953D01*
X134557915Y-83613854D01*
X134488111Y-83782376D01*
X134386772Y-83934041D01*
X134257791Y-84063022D01*
X134106126Y-84164361D01*
X133937604Y-84234165D01*
X133758703Y-84269750D01*
X133576297Y-84269750D01*
X133397396Y-84234165D01*
X133228874Y-84164361D01*
X133077209Y-84063022D01*
X132948228Y-83934041D01*
X132846889Y-83782376D01*
X132777085Y-83613854D01*
X132741500Y-83434953D01*
X132741500Y-83252547D01*
X132777085Y-83073646D01*
X132846889Y-82905124D01*
X132948228Y-82753459D01*
X133077209Y-82624478D01*
X133228874Y-82523139D01*
X133397396Y-82453335D01*
X133576297Y-82417750D01*
X133758703Y-82417750D01*
X133937604Y-82453335D01*
G37*
G36*
X85677604Y-82453335D02*
G01*
X85846126Y-82523139D01*
X85997791Y-82624478D01*
X86126772Y-82753459D01*
X86228111Y-82905124D01*
X86297915Y-83073646D01*
X86333500Y-83252547D01*
X86333500Y-83434953D01*
X86297915Y-83613854D01*
X86228111Y-83782376D01*
X86126772Y-83934041D01*
X85997791Y-84063022D01*
X85846126Y-84164361D01*
X85677604Y-84234165D01*
X85498703Y-84269750D01*
X85316297Y-84269750D01*
X85137396Y-84234165D01*
X84968874Y-84164361D01*
X84817209Y-84063022D01*
X84688228Y-83934041D01*
X84586889Y-83782376D01*
X84517085Y-83613854D01*
X84481500Y-83434953D01*
X84481500Y-83252547D01*
X84517085Y-83073646D01*
X84586889Y-82905124D01*
X84688228Y-82753459D01*
X84817209Y-82624478D01*
X84968874Y-82523139D01*
X85137396Y-82453335D01*
X85316297Y-82417750D01*
X85498703Y-82417750D01*
X85677604Y-82453335D01*
G37*
G36*
X95837604Y-82453335D02*
G01*
X96006126Y-82523139D01*
X96157791Y-82624478D01*
X96286772Y-82753459D01*
X96388111Y-82905124D01*
X96457915Y-83073646D01*
X96493500Y-83252547D01*
X96493500Y-83434953D01*
X96457915Y-83613854D01*
X96388111Y-83782376D01*
X96286772Y-83934041D01*
X96157791Y-84063022D01*
X96006126Y-84164361D01*
X95837604Y-84234165D01*
X95658703Y-84269750D01*
X95476297Y-84269750D01*
X95297396Y-84234165D01*
X95128874Y-84164361D01*
X94977209Y-84063022D01*
X94848228Y-83934041D01*
X94746889Y-83782376D01*
X94677085Y-83613854D01*
X94641500Y-83434953D01*
X94641500Y-83252547D01*
X94677085Y-83073646D01*
X94746889Y-82905124D01*
X94848228Y-82753459D01*
X94977209Y-82624478D01*
X95128874Y-82523139D01*
X95297396Y-82453335D01*
X95476297Y-82417750D01*
X95658703Y-82417750D01*
X95837604Y-82453335D01*
G37*
G36*
X114887604Y-82453335D02*
G01*
X115056126Y-82523139D01*
X115207791Y-82624478D01*
X115336772Y-82753459D01*
X115438111Y-82905124D01*
X115507915Y-83073646D01*
X115543500Y-83252547D01*
X115543500Y-83434953D01*
X115507915Y-83613854D01*
X115438111Y-83782376D01*
X115336772Y-83934041D01*
X115207791Y-84063022D01*
X115056126Y-84164361D01*
X114887604Y-84234165D01*
X114708703Y-84269750D01*
X114526297Y-84269750D01*
X114347396Y-84234165D01*
X114178874Y-84164361D01*
X114027209Y-84063022D01*
X113898228Y-83934041D01*
X113796889Y-83782376D01*
X113727085Y-83613854D01*
X113691500Y-83434953D01*
X113691500Y-83252547D01*
X113727085Y-83073646D01*
X113796889Y-82905124D01*
X113898228Y-82753459D01*
X114027209Y-82624478D01*
X114178874Y-82523139D01*
X114347396Y-82453335D01*
X114526297Y-82417750D01*
X114708703Y-82417750D01*
X114887604Y-82453335D01*
G37*
G36*
X65167632Y-78388607D02*
G01*
X65322504Y-78452757D01*
X65461885Y-78545889D01*
X65580419Y-78664423D01*
X65673551Y-78803804D01*
X65737701Y-78958676D01*
X65770404Y-79123088D01*
X65770404Y-79290720D01*
X65737701Y-79455132D01*
X65673551Y-79610004D01*
X65580419Y-79749385D01*
X65461885Y-79867919D01*
X65322504Y-79961051D01*
X65167632Y-80025201D01*
X65003220Y-80057904D01*
X64835588Y-80057904D01*
X64671176Y-80025201D01*
X64516304Y-79961051D01*
X64376923Y-79867919D01*
X64258389Y-79749385D01*
X64165257Y-79610004D01*
X64101107Y-79455132D01*
X64068404Y-79290720D01*
X64068404Y-79123088D01*
X64101107Y-78958676D01*
X64165257Y-78803804D01*
X64258389Y-78664423D01*
X64376923Y-78545889D01*
X64516304Y-78452757D01*
X64671176Y-78388607D01*
X64835588Y-78355904D01*
X65003220Y-78355904D01*
X65167632Y-78388607D01*
G37*
G36*
X69136382Y-78388607D02*
G01*
X69291254Y-78452757D01*
X69430635Y-78545889D01*
X69549169Y-78664423D01*
X69642301Y-78803804D01*
X69706451Y-78958676D01*
X69739154Y-79123088D01*
X69739154Y-79290720D01*
X69706451Y-79455132D01*
X69642301Y-79610004D01*
X69549169Y-79749385D01*
X69430635Y-79867919D01*
X69291254Y-79961051D01*
X69136382Y-80025201D01*
X68971970Y-80057904D01*
X68804338Y-80057904D01*
X68639926Y-80025201D01*
X68485054Y-79961051D01*
X68345673Y-79867919D01*
X68227139Y-79749385D01*
X68134007Y-79610004D01*
X68069857Y-79455132D01*
X68037154Y-79290720D01*
X68037154Y-79123088D01*
X68069857Y-78958676D01*
X68134007Y-78803804D01*
X68227139Y-78664423D01*
X68345673Y-78545889D01*
X68485054Y-78452757D01*
X68639926Y-78388607D01*
X68804338Y-78355904D01*
X68971970Y-78355904D01*
X69136382Y-78388607D01*
G37*
G36*
X73105132Y-78388607D02*
G01*
X73260004Y-78452757D01*
X73399385Y-78545889D01*
X73517919Y-78664423D01*
X73611051Y-78803804D01*
X73675201Y-78958676D01*
X73707904Y-79123088D01*
X73707904Y-79290720D01*
X73675201Y-79455132D01*
X73611051Y-79610004D01*
X73517919Y-79749385D01*
X73399385Y-79867919D01*
X73260004Y-79961051D01*
X73105132Y-80025201D01*
X72940720Y-80057904D01*
X72773088Y-80057904D01*
X72608676Y-80025201D01*
X72453804Y-79961051D01*
X72314423Y-79867919D01*
X72195889Y-79749385D01*
X72102757Y-79610004D01*
X72038607Y-79455132D01*
X72005904Y-79290720D01*
X72005904Y-79123088D01*
X72038607Y-78958676D01*
X72102757Y-78803804D01*
X72195889Y-78664423D01*
X72314423Y-78545889D01*
X72453804Y-78452757D01*
X72608676Y-78388607D01*
X72773088Y-78355904D01*
X72940720Y-78355904D01*
X73105132Y-78388607D01*
G37*
G36*
X68672246Y-73818750D02*
G01*
X67468750Y-75022246D01*
X66265254Y-73818750D01*
X67468750Y-72615254D01*
X68672246Y-73818750D01*
G37*
G36*
X64703496Y-73818750D02*
G01*
X63500000Y-75022246D01*
X62296504Y-73818750D01*
X63500000Y-72615254D01*
X64703496Y-73818750D01*
G37*
G36*
X60734746Y-73818750D02*
G01*
X59531250Y-75022246D01*
X58327754Y-73818750D01*
X59531250Y-72615254D01*
X60734746Y-73818750D01*
G37*
G36*
X58509478Y-67126703D02*
G01*
X58664350Y-67190853D01*
X58803731Y-67283985D01*
X58922265Y-67402519D01*
X59015397Y-67541900D01*
X59079547Y-67696772D01*
X59112250Y-67861184D01*
X59112250Y-68028816D01*
X59079547Y-68193228D01*
X59015397Y-68348100D01*
X58922265Y-68487481D01*
X58803731Y-68606015D01*
X58664350Y-68699147D01*
X58509478Y-68763297D01*
X58345066Y-68796000D01*
X58177434Y-68796000D01*
X58013022Y-68763297D01*
X57858150Y-68699147D01*
X57718769Y-68606015D01*
X57600235Y-68487481D01*
X57507103Y-68348100D01*
X57442953Y-68193228D01*
X57410250Y-68028816D01*
X57410250Y-67861184D01*
X57442953Y-67696772D01*
X57507103Y-67541900D01*
X57600235Y-67402519D01*
X57718769Y-67283985D01*
X57858150Y-67190853D01*
X58013022Y-67126703D01*
X58177434Y-67094000D01*
X58345066Y-67094000D01*
X58509478Y-67126703D01*
G37*
G36*
X73749478Y-67126703D02*
G01*
X73904350Y-67190853D01*
X74043731Y-67283985D01*
X74162265Y-67402519D01*
X74255397Y-67541900D01*
X74319547Y-67696772D01*
X74352250Y-67861184D01*
X74352250Y-68028816D01*
X74319547Y-68193228D01*
X74255397Y-68348100D01*
X74162265Y-68487481D01*
X74043731Y-68606015D01*
X73904350Y-68699147D01*
X73749478Y-68763297D01*
X73585066Y-68796000D01*
X73417434Y-68796000D01*
X73253022Y-68763297D01*
X73098150Y-68699147D01*
X72958769Y-68606015D01*
X72840235Y-68487481D01*
X72747103Y-68348100D01*
X72682953Y-68193228D01*
X72650250Y-68028816D01*
X72650250Y-67861184D01*
X72682953Y-67696772D01*
X72747103Y-67541900D01*
X72840235Y-67402519D01*
X72958769Y-67283985D01*
X73098150Y-67190853D01*
X73253022Y-67126703D01*
X73417434Y-67094000D01*
X73585066Y-67094000D01*
X73749478Y-67126703D01*
G37*
G36*
X129183974Y-62327434D02*
G01*
X129401974Y-62417733D01*
X129556123Y-62481583D01*
X129891048Y-62705373D01*
X130175877Y-62990202D01*
X130399667Y-63325127D01*
X130433779Y-63407481D01*
X130553816Y-63697276D01*
X130632400Y-64092344D01*
X130632400Y-64495156D01*
X130553816Y-64890224D01*
X130502951Y-65013022D01*
X130399667Y-65262373D01*
X130175877Y-65597298D01*
X129891048Y-65882127D01*
X129556123Y-66105917D01*
X129427614Y-66159147D01*
X129183974Y-66260066D01*
X128788906Y-66338650D01*
X128386094Y-66338650D01*
X127991026Y-66260066D01*
X127747386Y-66159147D01*
X127618877Y-66105917D01*
X127283952Y-65882127D01*
X126999123Y-65597298D01*
X126775333Y-65262373D01*
X126672049Y-65013022D01*
X126621184Y-64890224D01*
X126542600Y-64495156D01*
X126542600Y-64092344D01*
X126621184Y-63697276D01*
X126741221Y-63407481D01*
X126775333Y-63325127D01*
X126999123Y-62990202D01*
X127283952Y-62705373D01*
X127618877Y-62481583D01*
X127773026Y-62417733D01*
X127991026Y-62327434D01*
X128386094Y-62248850D01*
X128788906Y-62248850D01*
X129183974Y-62327434D01*
G37*
G36*
X91083974Y-62327434D02*
G01*
X91301974Y-62417733D01*
X91456123Y-62481583D01*
X91791048Y-62705373D01*
X92075877Y-62990202D01*
X92299667Y-63325127D01*
X92333779Y-63407481D01*
X92453816Y-63697276D01*
X92532400Y-64092344D01*
X92532400Y-64495156D01*
X92453816Y-64890224D01*
X92402951Y-65013022D01*
X92299667Y-65262373D01*
X92075877Y-65597298D01*
X91791048Y-65882127D01*
X91456123Y-66105917D01*
X91327614Y-66159147D01*
X91083974Y-66260066D01*
X90688906Y-66338650D01*
X90286094Y-66338650D01*
X89891026Y-66260066D01*
X89647386Y-66159147D01*
X89518877Y-66105917D01*
X89183952Y-65882127D01*
X88899123Y-65597298D01*
X88675333Y-65262373D01*
X88572049Y-65013022D01*
X88521184Y-64890224D01*
X88442600Y-64495156D01*
X88442600Y-64092344D01*
X88521184Y-63697276D01*
X88641221Y-63407481D01*
X88675333Y-63325127D01*
X88899123Y-62990202D01*
X89183952Y-62705373D01*
X89518877Y-62481583D01*
X89673026Y-62417733D01*
X89891026Y-62327434D01*
X90286094Y-62248850D01*
X90688906Y-62248850D01*
X91083974Y-62327434D01*
G37*
G36*
X110133974Y-62327434D02*
G01*
X110351974Y-62417733D01*
X110506123Y-62481583D01*
X110841048Y-62705373D01*
X111125877Y-62990202D01*
X111349667Y-63325127D01*
X111383779Y-63407481D01*
X111503816Y-63697276D01*
X111582400Y-64092344D01*
X111582400Y-64495156D01*
X111503816Y-64890224D01*
X111452951Y-65013022D01*
X111349667Y-65262373D01*
X111125877Y-65597298D01*
X110841048Y-65882127D01*
X110506123Y-66105917D01*
X110377614Y-66159147D01*
X110133974Y-66260066D01*
X109738906Y-66338650D01*
X109336094Y-66338650D01*
X108941026Y-66260066D01*
X108697386Y-66159147D01*
X108568877Y-66105917D01*
X108233952Y-65882127D01*
X107949123Y-65597298D01*
X107725333Y-65262373D01*
X107622049Y-65013022D01*
X107571184Y-64890224D01*
X107492600Y-64495156D01*
X107492600Y-64092344D01*
X107571184Y-63697276D01*
X107691221Y-63407481D01*
X107725333Y-63325127D01*
X107949123Y-62990202D01*
X108233952Y-62705373D01*
X108568877Y-62481583D01*
X108723026Y-62417733D01*
X108941026Y-62327434D01*
X109336094Y-62248850D01*
X109738906Y-62248850D01*
X110133974Y-62327434D01*
G37*
G36*
X58509478Y-64586703D02*
G01*
X58664350Y-64650853D01*
X58803731Y-64743985D01*
X58922265Y-64862519D01*
X59015397Y-65001900D01*
X59079547Y-65156772D01*
X59112250Y-65321184D01*
X59112250Y-65488816D01*
X59079547Y-65653228D01*
X59015397Y-65808100D01*
X58922265Y-65947481D01*
X58803731Y-66066015D01*
X58664350Y-66159147D01*
X58509478Y-66223297D01*
X58345066Y-66256000D01*
X58177434Y-66256000D01*
X58013022Y-66223297D01*
X57858150Y-66159147D01*
X57718769Y-66066015D01*
X57600235Y-65947481D01*
X57507103Y-65808100D01*
X57442953Y-65653228D01*
X57410250Y-65488816D01*
X57410250Y-65321184D01*
X57442953Y-65156772D01*
X57507103Y-65001900D01*
X57600235Y-64862519D01*
X57718769Y-64743985D01*
X57858150Y-64650853D01*
X58013022Y-64586703D01*
X58177434Y-64554000D01*
X58345066Y-64554000D01*
X58509478Y-64586703D01*
G37*
G36*
X73749478Y-64586703D02*
G01*
X73904350Y-64650853D01*
X74043731Y-64743985D01*
X74162265Y-64862519D01*
X74255397Y-65001900D01*
X74319547Y-65156772D01*
X74352250Y-65321184D01*
X74352250Y-65488816D01*
X74319547Y-65653228D01*
X74255397Y-65808100D01*
X74162265Y-65947481D01*
X74043731Y-66066015D01*
X73904350Y-66159147D01*
X73749478Y-66223297D01*
X73585066Y-66256000D01*
X73417434Y-66256000D01*
X73253022Y-66223297D01*
X73098150Y-66159147D01*
X72958769Y-66066015D01*
X72840235Y-65947481D01*
X72747103Y-65808100D01*
X72682953Y-65653228D01*
X72650250Y-65488816D01*
X72650250Y-65321184D01*
X72682953Y-65156772D01*
X72747103Y-65001900D01*
X72840235Y-64862519D01*
X72958769Y-64743985D01*
X73098150Y-64650853D01*
X73253022Y-64586703D01*
X73417434Y-64554000D01*
X73585066Y-64554000D01*
X73749478Y-64586703D01*
G37*
G36*
X95837604Y-63403335D02*
G01*
X96006126Y-63473139D01*
X96157791Y-63574478D01*
X96286772Y-63703459D01*
X96388111Y-63855124D01*
X96457915Y-64023646D01*
X96493500Y-64202547D01*
X96493500Y-64384953D01*
X96457915Y-64563854D01*
X96388111Y-64732376D01*
X96286772Y-64884041D01*
X96157791Y-65013022D01*
X96006126Y-65114361D01*
X95837604Y-65184165D01*
X95658703Y-65219750D01*
X95476297Y-65219750D01*
X95297396Y-65184165D01*
X95128874Y-65114361D01*
X94977209Y-65013022D01*
X94848228Y-64884041D01*
X94746889Y-64732376D01*
X94677085Y-64563854D01*
X94641500Y-64384953D01*
X94641500Y-64202547D01*
X94677085Y-64023646D01*
X94746889Y-63855124D01*
X94848228Y-63703459D01*
X94977209Y-63574478D01*
X95128874Y-63473139D01*
X95297396Y-63403335D01*
X95476297Y-63367750D01*
X95658703Y-63367750D01*
X95837604Y-63403335D01*
G37*
G36*
X85677604Y-63403335D02*
G01*
X85846126Y-63473139D01*
X85997791Y-63574478D01*
X86126772Y-63703459D01*
X86228111Y-63855124D01*
X86297915Y-64023646D01*
X86333500Y-64202547D01*
X86333500Y-64384953D01*
X86297915Y-64563854D01*
X86228111Y-64732376D01*
X86126772Y-64884041D01*
X85997791Y-65013022D01*
X85846126Y-65114361D01*
X85677604Y-65184165D01*
X85498703Y-65219750D01*
X85316297Y-65219750D01*
X85137396Y-65184165D01*
X84968874Y-65114361D01*
X84817209Y-65013022D01*
X84688228Y-64884041D01*
X84586889Y-64732376D01*
X84517085Y-64563854D01*
X84481500Y-64384953D01*
X84481500Y-64202547D01*
X84517085Y-64023646D01*
X84586889Y-63855124D01*
X84688228Y-63703459D01*
X84817209Y-63574478D01*
X84968874Y-63473139D01*
X85137396Y-63403335D01*
X85316297Y-63367750D01*
X85498703Y-63367750D01*
X85677604Y-63403335D01*
G37*
G36*
X104727604Y-63403335D02*
G01*
X104896126Y-63473139D01*
X105047791Y-63574478D01*
X105176772Y-63703459D01*
X105278111Y-63855124D01*
X105347915Y-64023646D01*
X105383500Y-64202547D01*
X105383500Y-64384953D01*
X105347915Y-64563854D01*
X105278111Y-64732376D01*
X105176772Y-64884041D01*
X105047791Y-65013022D01*
X104896126Y-65114361D01*
X104727604Y-65184165D01*
X104548703Y-65219750D01*
X104366297Y-65219750D01*
X104187396Y-65184165D01*
X104018874Y-65114361D01*
X103867209Y-65013022D01*
X103738228Y-64884041D01*
X103636889Y-64732376D01*
X103567085Y-64563854D01*
X103531500Y-64384953D01*
X103531500Y-64202547D01*
X103567085Y-64023646D01*
X103636889Y-63855124D01*
X103738228Y-63703459D01*
X103867209Y-63574478D01*
X104018874Y-63473139D01*
X104187396Y-63403335D01*
X104366297Y-63367750D01*
X104548703Y-63367750D01*
X104727604Y-63403335D01*
G37*
G36*
X114887604Y-63403335D02*
G01*
X115056126Y-63473139D01*
X115207791Y-63574478D01*
X115336772Y-63703459D01*
X115438111Y-63855124D01*
X115507915Y-64023646D01*
X115543500Y-64202547D01*
X115543500Y-64384953D01*
X115507915Y-64563854D01*
X115438111Y-64732376D01*
X115336772Y-64884041D01*
X115207791Y-65013022D01*
X115056126Y-65114361D01*
X114887604Y-65184165D01*
X114708703Y-65219750D01*
X114526297Y-65219750D01*
X114347396Y-65184165D01*
X114178874Y-65114361D01*
X114027209Y-65013022D01*
X113898228Y-64884041D01*
X113796889Y-64732376D01*
X113727085Y-64563854D01*
X113691500Y-64384953D01*
X113691500Y-64202547D01*
X113727085Y-64023646D01*
X113796889Y-63855124D01*
X113898228Y-63703459D01*
X114027209Y-63574478D01*
X114178874Y-63473139D01*
X114347396Y-63403335D01*
X114526297Y-63367750D01*
X114708703Y-63367750D01*
X114887604Y-63403335D01*
G37*
G36*
X123777604Y-63403335D02*
G01*
X123946126Y-63473139D01*
X124097791Y-63574478D01*
X124226772Y-63703459D01*
X124328111Y-63855124D01*
X124397915Y-64023646D01*
X124433500Y-64202547D01*
X124433500Y-64384953D01*
X124397915Y-64563854D01*
X124328111Y-64732376D01*
X124226772Y-64884041D01*
X124097791Y-65013022D01*
X123946126Y-65114361D01*
X123777604Y-65184165D01*
X123598703Y-65219750D01*
X123416297Y-65219750D01*
X123237396Y-65184165D01*
X123068874Y-65114361D01*
X122917209Y-65013022D01*
X122788228Y-64884041D01*
X122686889Y-64732376D01*
X122617085Y-64563854D01*
X122581500Y-64384953D01*
X122581500Y-64202547D01*
X122617085Y-64023646D01*
X122686889Y-63855124D01*
X122788228Y-63703459D01*
X122917209Y-63574478D01*
X123068874Y-63473139D01*
X123237396Y-63403335D01*
X123416297Y-63367750D01*
X123598703Y-63367750D01*
X123777604Y-63403335D01*
G37*
G36*
X133937604Y-63403335D02*
G01*
X134106126Y-63473139D01*
X134257791Y-63574478D01*
X134386772Y-63703459D01*
X134488111Y-63855124D01*
X134557915Y-64023646D01*
X134593500Y-64202547D01*
X134593500Y-64384953D01*
X134557915Y-64563854D01*
X134488111Y-64732376D01*
X134386772Y-64884041D01*
X134257791Y-65013022D01*
X134106126Y-65114361D01*
X133937604Y-65184165D01*
X133758703Y-65219750D01*
X133576297Y-65219750D01*
X133397396Y-65184165D01*
X133228874Y-65114361D01*
X133077209Y-65013022D01*
X132948228Y-64884041D01*
X132846889Y-64732376D01*
X132777085Y-64563854D01*
X132741500Y-64384953D01*
X132741500Y-64202547D01*
X132777085Y-64023646D01*
X132846889Y-63855124D01*
X132948228Y-63703459D01*
X133077209Y-63574478D01*
X133228874Y-63473139D01*
X133397396Y-63403335D01*
X133576297Y-63367750D01*
X133758703Y-63367750D01*
X133937604Y-63403335D01*
G37*
G36*
X58509478Y-62046703D02*
G01*
X58664350Y-62110853D01*
X58803731Y-62203985D01*
X58922265Y-62322519D01*
X59015397Y-62461900D01*
X59079547Y-62616772D01*
X59112250Y-62781184D01*
X59112250Y-62948816D01*
X59079547Y-63113228D01*
X59015397Y-63268100D01*
X58922265Y-63407481D01*
X58803731Y-63526015D01*
X58664350Y-63619147D01*
X58509478Y-63683297D01*
X58345066Y-63716000D01*
X58177434Y-63716000D01*
X58013022Y-63683297D01*
X57858150Y-63619147D01*
X57718769Y-63526015D01*
X57600235Y-63407481D01*
X57507103Y-63268100D01*
X57442953Y-63113228D01*
X57410250Y-62948816D01*
X57410250Y-62781184D01*
X57442953Y-62616772D01*
X57507103Y-62461900D01*
X57600235Y-62322519D01*
X57718769Y-62203985D01*
X57858150Y-62110853D01*
X58013022Y-62046703D01*
X58177434Y-62014000D01*
X58345066Y-62014000D01*
X58509478Y-62046703D01*
G37*
G36*
X73749478Y-62046703D02*
G01*
X73904350Y-62110853D01*
X74043731Y-62203985D01*
X74162265Y-62322519D01*
X74255397Y-62461900D01*
X74319547Y-62616772D01*
X74352250Y-62781184D01*
X74352250Y-62948816D01*
X74319547Y-63113228D01*
X74255397Y-63268100D01*
X74162265Y-63407481D01*
X74043731Y-63526015D01*
X73904350Y-63619147D01*
X73749478Y-63683297D01*
X73585066Y-63716000D01*
X73417434Y-63716000D01*
X73253022Y-63683297D01*
X73098150Y-63619147D01*
X72958769Y-63526015D01*
X72840235Y-63407481D01*
X72747103Y-63268100D01*
X72682953Y-63113228D01*
X72650250Y-62948816D01*
X72650250Y-62781184D01*
X72682953Y-62616772D01*
X72747103Y-62461900D01*
X72840235Y-62322519D01*
X72958769Y-62203985D01*
X73098150Y-62110853D01*
X73253022Y-62046703D01*
X73417434Y-62014000D01*
X73585066Y-62014000D01*
X73749478Y-62046703D01*
G37*
G36*
X58509478Y-59506703D02*
G01*
X58664350Y-59570853D01*
X58803731Y-59663985D01*
X58922265Y-59782519D01*
X59015397Y-59921900D01*
X59079547Y-60076772D01*
X59112250Y-60241184D01*
X59112250Y-60408816D01*
X59079547Y-60573228D01*
X59015397Y-60728100D01*
X58922265Y-60867481D01*
X58803731Y-60986015D01*
X58664350Y-61079147D01*
X58509478Y-61143297D01*
X58345066Y-61176000D01*
X58177434Y-61176000D01*
X58013022Y-61143297D01*
X57858150Y-61079147D01*
X57718769Y-60986015D01*
X57600235Y-60867481D01*
X57507103Y-60728100D01*
X57442953Y-60573228D01*
X57410250Y-60408816D01*
X57410250Y-60241184D01*
X57442953Y-60076772D01*
X57507103Y-59921900D01*
X57600235Y-59782519D01*
X57718769Y-59663985D01*
X57858150Y-59570853D01*
X58013022Y-59506703D01*
X58177434Y-59474000D01*
X58345066Y-59474000D01*
X58509478Y-59506703D01*
G37*
G36*
X73749478Y-59506703D02*
G01*
X73904350Y-59570853D01*
X74043731Y-59663985D01*
X74162265Y-59782519D01*
X74255397Y-59921900D01*
X74319547Y-60076772D01*
X74352250Y-60241184D01*
X74352250Y-60408816D01*
X74319547Y-60573228D01*
X74255397Y-60728100D01*
X74162265Y-60867481D01*
X74043731Y-60986015D01*
X73904350Y-61079147D01*
X73749478Y-61143297D01*
X73585066Y-61176000D01*
X73417434Y-61176000D01*
X73253022Y-61143297D01*
X73098150Y-61079147D01*
X72958769Y-60986015D01*
X72840235Y-60867481D01*
X72747103Y-60728100D01*
X72682953Y-60573228D01*
X72650250Y-60408816D01*
X72650250Y-60241184D01*
X72682953Y-60076772D01*
X72747103Y-59921900D01*
X72840235Y-59782519D01*
X72958769Y-59663985D01*
X73098150Y-59570853D01*
X73253022Y-59506703D01*
X73417434Y-59474000D01*
X73585066Y-59474000D01*
X73749478Y-59506703D01*
G37*
G36*
X73749478Y-56966703D02*
G01*
X73904350Y-57030853D01*
X74043731Y-57123985D01*
X74162265Y-57242519D01*
X74255397Y-57381900D01*
X74319547Y-57536772D01*
X74352250Y-57701184D01*
X74352250Y-57868816D01*
X74319547Y-58033228D01*
X74255397Y-58188100D01*
X74162265Y-58327481D01*
X74043731Y-58446015D01*
X73904350Y-58539147D01*
X73749478Y-58603297D01*
X73585066Y-58636000D01*
X73417434Y-58636000D01*
X73253022Y-58603297D01*
X73098150Y-58539147D01*
X72958769Y-58446015D01*
X72840235Y-58327481D01*
X72747103Y-58188100D01*
X72682953Y-58033228D01*
X72650250Y-57868816D01*
X72650250Y-57701184D01*
X72682953Y-57536772D01*
X72747103Y-57381900D01*
X72840235Y-57242519D01*
X72958769Y-57123985D01*
X73098150Y-57030853D01*
X73253022Y-56966703D01*
X73417434Y-56934000D01*
X73585066Y-56934000D01*
X73749478Y-56966703D01*
G37*
G36*
X58509478Y-56966703D02*
G01*
X58664350Y-57030853D01*
X58803731Y-57123985D01*
X58922265Y-57242519D01*
X59015397Y-57381900D01*
X59079547Y-57536772D01*
X59112250Y-57701184D01*
X59112250Y-57868816D01*
X59079547Y-58033228D01*
X59015397Y-58188100D01*
X58922265Y-58327481D01*
X58803731Y-58446015D01*
X58664350Y-58539147D01*
X58509478Y-58603297D01*
X58345066Y-58636000D01*
X58177434Y-58636000D01*
X58013022Y-58603297D01*
X57858150Y-58539147D01*
X57718769Y-58446015D01*
X57600235Y-58327481D01*
X57507103Y-58188100D01*
X57442953Y-58033228D01*
X57410250Y-57868816D01*
X57410250Y-57701184D01*
X57442953Y-57536772D01*
X57507103Y-57381900D01*
X57600235Y-57242519D01*
X57718769Y-57123985D01*
X57858150Y-57030853D01*
X58013022Y-56966703D01*
X58177434Y-56934000D01*
X58345066Y-56934000D01*
X58509478Y-56966703D01*
G37*
G36*
X73749478Y-54426703D02*
G01*
X73904350Y-54490853D01*
X74043731Y-54583985D01*
X74162265Y-54702519D01*
X74255397Y-54841900D01*
X74319547Y-54996772D01*
X74352250Y-55161184D01*
X74352250Y-55328816D01*
X74319547Y-55493228D01*
X74255397Y-55648100D01*
X74162265Y-55787481D01*
X74043731Y-55906015D01*
X73904350Y-55999147D01*
X73749478Y-56063297D01*
X73585066Y-56096000D01*
X73417434Y-56096000D01*
X73253022Y-56063297D01*
X73098150Y-55999147D01*
X72958769Y-55906015D01*
X72840235Y-55787481D01*
X72747103Y-55648100D01*
X72682953Y-55493228D01*
X72650250Y-55328816D01*
X72650250Y-55161184D01*
X72682953Y-54996772D01*
X72747103Y-54841900D01*
X72840235Y-54702519D01*
X72958769Y-54583985D01*
X73098150Y-54490853D01*
X73253022Y-54426703D01*
X73417434Y-54394000D01*
X73585066Y-54394000D01*
X73749478Y-54426703D01*
G37*
G36*
X58509478Y-54426703D02*
G01*
X58664350Y-54490853D01*
X58803731Y-54583985D01*
X58922265Y-54702519D01*
X59015397Y-54841900D01*
X59079547Y-54996772D01*
X59112250Y-55161184D01*
X59112250Y-55328816D01*
X59079547Y-55493228D01*
X59015397Y-55648100D01*
X58922265Y-55787481D01*
X58803731Y-55906015D01*
X58664350Y-55999147D01*
X58509478Y-56063297D01*
X58345066Y-56096000D01*
X58177434Y-56096000D01*
X58013022Y-56063297D01*
X57858150Y-55999147D01*
X57718769Y-55906015D01*
X57600235Y-55787481D01*
X57507103Y-55648100D01*
X57442953Y-55493228D01*
X57410250Y-55328816D01*
X57410250Y-55161184D01*
X57442953Y-54996772D01*
X57507103Y-54841900D01*
X57600235Y-54702519D01*
X57718769Y-54583985D01*
X57858150Y-54490853D01*
X58013022Y-54426703D01*
X58177434Y-54394000D01*
X58345066Y-54394000D01*
X58509478Y-54426703D01*
G37*
G36*
X73749478Y-51886703D02*
G01*
X73904350Y-51950853D01*
X74043731Y-52043985D01*
X74162265Y-52162519D01*
X74255397Y-52301900D01*
X74319547Y-52456772D01*
X74352250Y-52621184D01*
X74352250Y-52788816D01*
X74319547Y-52953228D01*
X74255397Y-53108100D01*
X74162265Y-53247481D01*
X74043731Y-53366015D01*
X73904350Y-53459147D01*
X73749478Y-53523297D01*
X73585066Y-53556000D01*
X73417434Y-53556000D01*
X73253022Y-53523297D01*
X73098150Y-53459147D01*
X72958769Y-53366015D01*
X72840235Y-53247481D01*
X72747103Y-53108100D01*
X72682953Y-52953228D01*
X72650250Y-52788816D01*
X72650250Y-52621184D01*
X72682953Y-52456772D01*
X72747103Y-52301900D01*
X72840235Y-52162519D01*
X72958769Y-52043985D01*
X73098150Y-51950853D01*
X73253022Y-51886703D01*
X73417434Y-51854000D01*
X73585066Y-51854000D01*
X73749478Y-51886703D01*
G37*
G36*
X58509478Y-51886703D02*
G01*
X58664350Y-51950853D01*
X58803731Y-52043985D01*
X58922265Y-52162519D01*
X59015397Y-52301900D01*
X59079547Y-52456772D01*
X59112250Y-52621184D01*
X59112250Y-52788816D01*
X59079547Y-52953228D01*
X59015397Y-53108100D01*
X58922265Y-53247481D01*
X58803731Y-53366015D01*
X58664350Y-53459147D01*
X58509478Y-53523297D01*
X58345066Y-53556000D01*
X58177434Y-53556000D01*
X58013022Y-53523297D01*
X57858150Y-53459147D01*
X57718769Y-53366015D01*
X57600235Y-53247481D01*
X57507103Y-53108100D01*
X57442953Y-52953228D01*
X57410250Y-52788816D01*
X57410250Y-52621184D01*
X57442953Y-52456772D01*
X57507103Y-52301900D01*
X57600235Y-52162519D01*
X57718769Y-52043985D01*
X57858150Y-51950853D01*
X58013022Y-51886703D01*
X58177434Y-51854000D01*
X58345066Y-51854000D01*
X58509478Y-51886703D01*
G37*
G36*
X58509478Y-49346703D02*
G01*
X58664350Y-49410853D01*
X58803731Y-49503985D01*
X58922265Y-49622519D01*
X59015397Y-49761900D01*
X59079547Y-49916772D01*
X59112250Y-50081184D01*
X59112250Y-50248816D01*
X59079547Y-50413228D01*
X59015397Y-50568100D01*
X58922265Y-50707481D01*
X58803731Y-50826015D01*
X58664350Y-50919147D01*
X58509478Y-50983297D01*
X58345066Y-51016000D01*
X58177434Y-51016000D01*
X58013022Y-50983297D01*
X57858150Y-50919147D01*
X57718769Y-50826015D01*
X57600235Y-50707481D01*
X57507103Y-50568100D01*
X57442953Y-50413228D01*
X57410250Y-50248816D01*
X57410250Y-50081184D01*
X57442953Y-49916772D01*
X57507103Y-49761900D01*
X57600235Y-49622519D01*
X57718769Y-49503985D01*
X57858150Y-49410853D01*
X58013022Y-49346703D01*
X58177434Y-49314000D01*
X58345066Y-49314000D01*
X58509478Y-49346703D01*
G37*
G36*
X73749478Y-49346703D02*
G01*
X73904350Y-49410853D01*
X74043731Y-49503985D01*
X74162265Y-49622519D01*
X74255397Y-49761900D01*
X74319547Y-49916772D01*
X74352250Y-50081184D01*
X74352250Y-50248816D01*
X74319547Y-50413228D01*
X74255397Y-50568100D01*
X74162265Y-50707481D01*
X74043731Y-50826015D01*
X73904350Y-50919147D01*
X73749478Y-50983297D01*
X73585066Y-51016000D01*
X73417434Y-51016000D01*
X73253022Y-50983297D01*
X73098150Y-50919147D01*
X72958769Y-50826015D01*
X72840235Y-50707481D01*
X72747103Y-50568100D01*
X72682953Y-50413228D01*
X72650250Y-50248816D01*
X72650250Y-50081184D01*
X72682953Y-49916772D01*
X72747103Y-49761900D01*
X72840235Y-49622519D01*
X72958769Y-49503985D01*
X73098150Y-49410853D01*
X73253022Y-49346703D01*
X73417434Y-49314000D01*
X73585066Y-49314000D01*
X73749478Y-49346703D01*
G37*
G36*
X58509478Y-46806703D02*
G01*
X58664350Y-46870853D01*
X58803731Y-46963985D01*
X58922265Y-47082519D01*
X59015397Y-47221900D01*
X59079547Y-47376772D01*
X59112250Y-47541184D01*
X59112250Y-47708816D01*
X59079547Y-47873228D01*
X59015397Y-48028100D01*
X58922265Y-48167481D01*
X58803731Y-48286015D01*
X58664350Y-48379147D01*
X58509478Y-48443297D01*
X58345066Y-48476000D01*
X58177434Y-48476000D01*
X58013022Y-48443297D01*
X57858150Y-48379147D01*
X57718769Y-48286015D01*
X57600235Y-48167481D01*
X57507103Y-48028100D01*
X57442953Y-47873228D01*
X57410250Y-47708816D01*
X57410250Y-47541184D01*
X57442953Y-47376772D01*
X57507103Y-47221900D01*
X57600235Y-47082519D01*
X57718769Y-46963985D01*
X57858150Y-46870853D01*
X58013022Y-46806703D01*
X58177434Y-46774000D01*
X58345066Y-46774000D01*
X58509478Y-46806703D01*
G37*
G36*
X73749478Y-46806703D02*
G01*
X73904350Y-46870853D01*
X74043731Y-46963985D01*
X74162265Y-47082519D01*
X74255397Y-47221900D01*
X74319547Y-47376772D01*
X74352250Y-47541184D01*
X74352250Y-47708816D01*
X74319547Y-47873228D01*
X74255397Y-48028100D01*
X74162265Y-48167481D01*
X74043731Y-48286015D01*
X73904350Y-48379147D01*
X73749478Y-48443297D01*
X73585066Y-48476000D01*
X73417434Y-48476000D01*
X73253022Y-48443297D01*
X73098150Y-48379147D01*
X72958769Y-48286015D01*
X72840235Y-48167481D01*
X72747103Y-48028100D01*
X72682953Y-47873228D01*
X72650250Y-47708816D01*
X72650250Y-47541184D01*
X72682953Y-47376772D01*
X72747103Y-47221900D01*
X72840235Y-47082519D01*
X72958769Y-46963985D01*
X73098150Y-46870853D01*
X73253022Y-46806703D01*
X73417434Y-46774000D01*
X73585066Y-46774000D01*
X73749478Y-46806703D01*
G37*
G36*
X110133974Y-43277434D02*
G01*
X110341260Y-43363295D01*
X110506123Y-43431583D01*
X110841048Y-43655373D01*
X111125877Y-43940202D01*
X111349667Y-44275127D01*
X111382062Y-44353336D01*
X111503816Y-44647276D01*
X111582400Y-45042344D01*
X111582400Y-45445156D01*
X111503816Y-45840224D01*
X111452951Y-45963022D01*
X111349667Y-46212373D01*
X111125877Y-46547298D01*
X110841048Y-46832127D01*
X110506123Y-47055917D01*
X110441897Y-47082520D01*
X110133974Y-47210066D01*
X109738906Y-47288650D01*
X109336094Y-47288650D01*
X108941026Y-47210066D01*
X108633103Y-47082520D01*
X108568877Y-47055917D01*
X108233952Y-46832127D01*
X107949123Y-46547298D01*
X107725333Y-46212373D01*
X107622049Y-45963022D01*
X107571184Y-45840224D01*
X107492600Y-45445156D01*
X107492600Y-45042344D01*
X107571184Y-44647276D01*
X107692938Y-44353336D01*
X107725333Y-44275127D01*
X107949123Y-43940202D01*
X108233952Y-43655373D01*
X108568877Y-43431583D01*
X108733740Y-43363295D01*
X108941026Y-43277434D01*
X109336094Y-43198850D01*
X109738906Y-43198850D01*
X110133974Y-43277434D01*
G37*
G36*
X91083974Y-43277434D02*
G01*
X91291260Y-43363295D01*
X91456123Y-43431583D01*
X91791048Y-43655373D01*
X92075877Y-43940202D01*
X92299667Y-44275127D01*
X92332062Y-44353336D01*
X92453816Y-44647276D01*
X92532400Y-45042344D01*
X92532400Y-45445156D01*
X92453816Y-45840224D01*
X92402951Y-45963022D01*
X92299667Y-46212373D01*
X92075877Y-46547298D01*
X91791048Y-46832127D01*
X91456123Y-47055917D01*
X91391897Y-47082520D01*
X91083974Y-47210066D01*
X90688906Y-47288650D01*
X90286094Y-47288650D01*
X89891026Y-47210066D01*
X89583103Y-47082520D01*
X89518877Y-47055917D01*
X89183952Y-46832127D01*
X88899123Y-46547298D01*
X88675333Y-46212373D01*
X88572049Y-45963022D01*
X88521184Y-45840224D01*
X88442600Y-45445156D01*
X88442600Y-45042344D01*
X88521184Y-44647276D01*
X88642938Y-44353336D01*
X88675333Y-44275127D01*
X88899123Y-43940202D01*
X89183952Y-43655373D01*
X89518877Y-43431583D01*
X89683740Y-43363295D01*
X89891026Y-43277434D01*
X90286094Y-43198850D01*
X90688906Y-43198850D01*
X91083974Y-43277434D01*
G37*
G36*
X129183974Y-43277434D02*
G01*
X129391260Y-43363295D01*
X129556123Y-43431583D01*
X129891048Y-43655373D01*
X130175877Y-43940202D01*
X130399667Y-44275127D01*
X130432062Y-44353336D01*
X130553816Y-44647276D01*
X130632400Y-45042344D01*
X130632400Y-45445156D01*
X130553816Y-45840224D01*
X130502951Y-45963022D01*
X130399667Y-46212373D01*
X130175877Y-46547298D01*
X129891048Y-46832127D01*
X129556123Y-47055917D01*
X129491897Y-47082520D01*
X129183974Y-47210066D01*
X128788906Y-47288650D01*
X128386094Y-47288650D01*
X127991026Y-47210066D01*
X127683103Y-47082520D01*
X127618877Y-47055917D01*
X127283952Y-46832127D01*
X126999123Y-46547298D01*
X126775333Y-46212373D01*
X126672049Y-45963022D01*
X126621184Y-45840224D01*
X126542600Y-45445156D01*
X126542600Y-45042344D01*
X126621184Y-44647276D01*
X126742938Y-44353336D01*
X126775333Y-44275127D01*
X126999123Y-43940202D01*
X127283952Y-43655373D01*
X127618877Y-43431583D01*
X127783740Y-43363295D01*
X127991026Y-43277434D01*
X128386094Y-43198850D01*
X128788906Y-43198850D01*
X129183974Y-43277434D01*
G37*
G36*
X104727604Y-44353335D02*
G01*
X104896126Y-44423139D01*
X105047791Y-44524478D01*
X105176772Y-44653459D01*
X105278111Y-44805124D01*
X105347915Y-44973646D01*
X105383500Y-45152547D01*
X105383500Y-45334953D01*
X105347915Y-45513854D01*
X105278111Y-45682376D01*
X105176772Y-45834041D01*
X105047791Y-45963022D01*
X104896126Y-46064361D01*
X104727604Y-46134165D01*
X104548703Y-46169750D01*
X104366297Y-46169750D01*
X104187396Y-46134165D01*
X104018874Y-46064361D01*
X103867209Y-45963022D01*
X103738228Y-45834041D01*
X103636889Y-45682376D01*
X103567085Y-45513854D01*
X103531500Y-45334953D01*
X103531500Y-45152547D01*
X103567085Y-44973646D01*
X103636889Y-44805124D01*
X103738228Y-44653459D01*
X103867209Y-44524478D01*
X104018874Y-44423139D01*
X104187396Y-44353335D01*
X104366297Y-44317750D01*
X104548703Y-44317750D01*
X104727604Y-44353335D01*
G37*
G36*
X85677604Y-44353335D02*
G01*
X85846126Y-44423139D01*
X85997791Y-44524478D01*
X86126772Y-44653459D01*
X86228111Y-44805124D01*
X86297915Y-44973646D01*
X86333500Y-45152547D01*
X86333500Y-45334953D01*
X86297915Y-45513854D01*
X86228111Y-45682376D01*
X86126772Y-45834041D01*
X85997791Y-45963022D01*
X85846126Y-46064361D01*
X85677604Y-46134165D01*
X85498703Y-46169750D01*
X85316297Y-46169750D01*
X85137396Y-46134165D01*
X84968874Y-46064361D01*
X84817209Y-45963022D01*
X84688228Y-45834041D01*
X84586889Y-45682376D01*
X84517085Y-45513854D01*
X84481500Y-45334953D01*
X84481500Y-45152547D01*
X84517085Y-44973646D01*
X84586889Y-44805124D01*
X84688228Y-44653459D01*
X84817209Y-44524478D01*
X84968874Y-44423139D01*
X85137396Y-44353335D01*
X85316297Y-44317750D01*
X85498703Y-44317750D01*
X85677604Y-44353335D01*
G37*
G36*
X95837604Y-44353335D02*
G01*
X96006126Y-44423139D01*
X96157791Y-44524478D01*
X96286772Y-44653459D01*
X96388111Y-44805124D01*
X96457915Y-44973646D01*
X96493500Y-45152547D01*
X96493500Y-45334953D01*
X96457915Y-45513854D01*
X96388111Y-45682376D01*
X96286772Y-45834041D01*
X96157791Y-45963022D01*
X96006126Y-46064361D01*
X95837604Y-46134165D01*
X95658703Y-46169750D01*
X95476297Y-46169750D01*
X95297396Y-46134165D01*
X95128874Y-46064361D01*
X94977209Y-45963022D01*
X94848228Y-45834041D01*
X94746889Y-45682376D01*
X94677085Y-45513854D01*
X94641500Y-45334953D01*
X94641500Y-45152547D01*
X94677085Y-44973646D01*
X94746889Y-44805124D01*
X94848228Y-44653459D01*
X94977209Y-44524478D01*
X95128874Y-44423139D01*
X95297396Y-44353335D01*
X95476297Y-44317750D01*
X95658703Y-44317750D01*
X95837604Y-44353335D01*
G37*
G36*
X114887604Y-44353335D02*
G01*
X115056126Y-44423139D01*
X115207791Y-44524478D01*
X115336772Y-44653459D01*
X115438111Y-44805124D01*
X115507915Y-44973646D01*
X115543500Y-45152547D01*
X115543500Y-45334953D01*
X115507915Y-45513854D01*
X115438111Y-45682376D01*
X115336772Y-45834041D01*
X115207791Y-45963022D01*
X115056126Y-46064361D01*
X114887604Y-46134165D01*
X114708703Y-46169750D01*
X114526297Y-46169750D01*
X114347396Y-46134165D01*
X114178874Y-46064361D01*
X114027209Y-45963022D01*
X113898228Y-45834041D01*
X113796889Y-45682376D01*
X113727085Y-45513854D01*
X113691500Y-45334953D01*
X113691500Y-45152547D01*
X113727085Y-44973646D01*
X113796889Y-44805124D01*
X113898228Y-44653459D01*
X114027209Y-44524478D01*
X114178874Y-44423139D01*
X114347396Y-44353335D01*
X114526297Y-44317750D01*
X114708703Y-44317750D01*
X114887604Y-44353335D01*
G37*
G36*
X123777604Y-44353335D02*
G01*
X123946126Y-44423139D01*
X124097791Y-44524478D01*
X124226772Y-44653459D01*
X124328111Y-44805124D01*
X124397915Y-44973646D01*
X124433500Y-45152547D01*
X124433500Y-45334953D01*
X124397915Y-45513854D01*
X124328111Y-45682376D01*
X124226772Y-45834041D01*
X124097791Y-45963022D01*
X123946126Y-46064361D01*
X123777604Y-46134165D01*
X123598703Y-46169750D01*
X123416297Y-46169750D01*
X123237396Y-46134165D01*
X123068874Y-46064361D01*
X122917209Y-45963022D01*
X122788228Y-45834041D01*
X122686889Y-45682376D01*
X122617085Y-45513854D01*
X122581500Y-45334953D01*
X122581500Y-45152547D01*
X122617085Y-44973646D01*
X122686889Y-44805124D01*
X122788228Y-44653459D01*
X122917209Y-44524478D01*
X123068874Y-44423139D01*
X123237396Y-44353335D01*
X123416297Y-44317750D01*
X123598703Y-44317750D01*
X123777604Y-44353335D01*
G37*
G36*
X133937604Y-44353335D02*
G01*
X134106126Y-44423139D01*
X134257791Y-44524478D01*
X134386772Y-44653459D01*
X134488111Y-44805124D01*
X134557915Y-44973646D01*
X134593500Y-45152547D01*
X134593500Y-45334953D01*
X134557915Y-45513854D01*
X134488111Y-45682376D01*
X134386772Y-45834041D01*
X134257791Y-45963022D01*
X134106126Y-46064361D01*
X133937604Y-46134165D01*
X133758703Y-46169750D01*
X133576297Y-46169750D01*
X133397396Y-46134165D01*
X133228874Y-46064361D01*
X133077209Y-45963022D01*
X132948228Y-45834041D01*
X132846889Y-45682376D01*
X132777085Y-45513854D01*
X132741500Y-45334953D01*
X132741500Y-45152547D01*
X132777085Y-44973646D01*
X132846889Y-44805124D01*
X132948228Y-44653459D01*
X133077209Y-44524478D01*
X133228874Y-44423139D01*
X133397396Y-44353335D01*
X133576297Y-44317750D01*
X133758703Y-44317750D01*
X133937604Y-44353335D01*
G37*
G36*
X78837990Y-46135490D02*
G01*
X76737010Y-46135490D01*
X76737010Y-44034510D01*
X78837990Y-44034510D01*
X78837990Y-46135490D01*
G37*
G36*
X58509478Y-44266703D02*
G01*
X58664350Y-44330853D01*
X58803731Y-44423985D01*
X58922265Y-44542519D01*
X59015397Y-44681900D01*
X59079547Y-44836772D01*
X59112250Y-45001184D01*
X59112250Y-45168816D01*
X59079547Y-45333228D01*
X59015397Y-45488100D01*
X58922265Y-45627481D01*
X58803731Y-45746015D01*
X58664350Y-45839147D01*
X58509478Y-45903297D01*
X58345066Y-45936000D01*
X58177434Y-45936000D01*
X58013022Y-45903297D01*
X57858150Y-45839147D01*
X57718769Y-45746015D01*
X57600235Y-45627481D01*
X57507103Y-45488100D01*
X57442953Y-45333228D01*
X57410250Y-45168816D01*
X57410250Y-45001184D01*
X57442953Y-44836772D01*
X57507103Y-44681900D01*
X57600235Y-44542519D01*
X57718769Y-44423985D01*
X57858150Y-44330853D01*
X58013022Y-44266703D01*
X58177434Y-44234000D01*
X58345066Y-44234000D01*
X58509478Y-44266703D01*
G37*
G36*
X73749478Y-44266703D02*
G01*
X73904350Y-44330853D01*
X74043731Y-44423985D01*
X74162265Y-44542519D01*
X74255397Y-44681900D01*
X74319547Y-44836772D01*
X74352250Y-45001184D01*
X74352250Y-45168816D01*
X74319547Y-45333228D01*
X74255397Y-45488100D01*
X74162265Y-45627481D01*
X74043731Y-45746015D01*
X73904350Y-45839147D01*
X73749478Y-45903297D01*
X73585066Y-45936000D01*
X73417434Y-45936000D01*
X73253022Y-45903297D01*
X73098150Y-45839147D01*
X72958769Y-45746015D01*
X72840235Y-45627481D01*
X72747103Y-45488100D01*
X72682953Y-45333228D01*
X72650250Y-45168816D01*
X72650250Y-45001184D01*
X72682953Y-44836772D01*
X72747103Y-44681900D01*
X72840235Y-44542519D01*
X72958769Y-44423985D01*
X73098150Y-44330853D01*
X73253022Y-44266703D01*
X73417434Y-44234000D01*
X73585066Y-44234000D01*
X73749478Y-44266703D01*
G37*
G36*
X73749478Y-41726703D02*
G01*
X73904350Y-41790853D01*
X74043731Y-41883985D01*
X74162265Y-42002519D01*
X74255397Y-42141900D01*
X74319547Y-42296772D01*
X74352250Y-42461184D01*
X74352250Y-42628816D01*
X74319547Y-42793228D01*
X74255397Y-42948100D01*
X74162265Y-43087481D01*
X74043731Y-43206015D01*
X73904350Y-43299147D01*
X73749478Y-43363297D01*
X73585066Y-43396000D01*
X73417434Y-43396000D01*
X73253022Y-43363297D01*
X73098150Y-43299147D01*
X72958769Y-43206015D01*
X72840235Y-43087481D01*
X72747103Y-42948100D01*
X72682953Y-42793228D01*
X72650250Y-42628816D01*
X72650250Y-42461184D01*
X72682953Y-42296772D01*
X72747103Y-42141900D01*
X72840235Y-42002519D01*
X72958769Y-41883985D01*
X73098150Y-41790853D01*
X73253022Y-41726703D01*
X73417434Y-41694000D01*
X73585066Y-41694000D01*
X73749478Y-41726703D01*
G37*
G36*
X58509478Y-41726703D02*
G01*
X58664350Y-41790853D01*
X58803731Y-41883985D01*
X58922265Y-42002519D01*
X59015397Y-42141900D01*
X59079547Y-42296772D01*
X59112250Y-42461184D01*
X59112250Y-42628816D01*
X59079547Y-42793228D01*
X59015397Y-42948100D01*
X58922265Y-43087481D01*
X58803731Y-43206015D01*
X58664350Y-43299147D01*
X58509478Y-43363297D01*
X58345066Y-43396000D01*
X58177434Y-43396000D01*
X58013022Y-43363297D01*
X57858150Y-43299147D01*
X57718769Y-43206015D01*
X57600235Y-43087481D01*
X57507103Y-42948100D01*
X57442953Y-42793228D01*
X57410250Y-42628816D01*
X57410250Y-42461184D01*
X57442953Y-42296772D01*
X57507103Y-42141900D01*
X57600235Y-42002519D01*
X57718769Y-41883985D01*
X57858150Y-41790853D01*
X58013022Y-41726703D01*
X58177434Y-41694000D01*
X58345066Y-41694000D01*
X58509478Y-41726703D01*
G37*
G36*
X78093916Y-40264879D02*
G01*
X78285092Y-40344067D01*
X78285094Y-40344068D01*
X78457148Y-40459031D01*
X78603469Y-40605352D01*
X78706232Y-40759147D01*
X78718433Y-40777408D01*
X78797621Y-40968584D01*
X78837990Y-41171534D01*
X78837990Y-41378466D01*
X78797621Y-41581416D01*
X78750987Y-41694000D01*
X78718432Y-41772594D01*
X78603469Y-41944648D01*
X78457148Y-42090969D01*
X78285094Y-42205932D01*
X78285093Y-42205933D01*
X78285092Y-42205933D01*
X78093916Y-42285121D01*
X77890966Y-42325490D01*
X77684034Y-42325490D01*
X77481084Y-42285121D01*
X77289908Y-42205933D01*
X77289907Y-42205933D01*
X77289906Y-42205932D01*
X77117852Y-42090969D01*
X76971531Y-41944648D01*
X76856568Y-41772594D01*
X76824013Y-41694000D01*
X76777379Y-41581416D01*
X76737010Y-41378466D01*
X76737010Y-41171534D01*
X76777379Y-40968584D01*
X76856567Y-40777408D01*
X76868769Y-40759147D01*
X76971531Y-40605352D01*
X77117852Y-40459031D01*
X77289906Y-40344068D01*
X77289908Y-40344067D01*
X77481084Y-40264879D01*
X77684034Y-40224510D01*
X77890966Y-40224510D01*
X78093916Y-40264879D01*
G37*
G36*
X73749478Y-39186703D02*
G01*
X73904350Y-39250853D01*
X74043731Y-39343985D01*
X74162265Y-39462519D01*
X74255397Y-39601900D01*
X74319547Y-39756772D01*
X74352250Y-39921184D01*
X74352250Y-40088816D01*
X74319547Y-40253228D01*
X74255397Y-40408100D01*
X74162265Y-40547481D01*
X74043731Y-40666015D01*
X73904350Y-40759147D01*
X73749478Y-40823297D01*
X73585066Y-40856000D01*
X73417434Y-40856000D01*
X73253022Y-40823297D01*
X73098150Y-40759147D01*
X72958769Y-40666015D01*
X72840235Y-40547481D01*
X72747103Y-40408100D01*
X72682953Y-40253228D01*
X72650250Y-40088816D01*
X72650250Y-39921184D01*
X72682953Y-39756772D01*
X72747103Y-39601900D01*
X72840235Y-39462519D01*
X72958769Y-39343985D01*
X73098150Y-39250853D01*
X73253022Y-39186703D01*
X73417434Y-39154000D01*
X73585066Y-39154000D01*
X73749478Y-39186703D01*
G37*
G36*
X59112250Y-40856000D02*
G01*
X57410250Y-40856000D01*
X57410250Y-39154000D01*
X59112250Y-39154000D01*
X59112250Y-40856000D01*
G37*
G36*
X53405799Y-37764866D02*
G01*
X53516984Y-37786982D01*
X53726453Y-37873747D01*
X53914970Y-37999710D01*
X54075290Y-38160030D01*
X54201253Y-38348547D01*
X54288018Y-38558016D01*
X54332250Y-38780386D01*
X54332250Y-39007114D01*
X54288018Y-39229484D01*
X54201253Y-39438953D01*
X54075290Y-39627470D01*
X53914970Y-39787790D01*
X53726453Y-39913753D01*
X53516984Y-40000518D01*
X53405799Y-40022634D01*
X53294615Y-40044750D01*
X53067885Y-40044750D01*
X52956701Y-40022634D01*
X52845516Y-40000518D01*
X52636047Y-39913753D01*
X52447530Y-39787790D01*
X52287210Y-39627470D01*
X52161247Y-39438953D01*
X52074482Y-39229484D01*
X52030250Y-39007114D01*
X52030250Y-38780386D01*
X52074482Y-38558016D01*
X52161247Y-38348547D01*
X52287210Y-38160030D01*
X52447530Y-37999710D01*
X52636047Y-37873747D01*
X52845516Y-37786982D01*
X52956701Y-37764866D01*
X53067885Y-37742750D01*
X53294615Y-37742750D01*
X53405799Y-37764866D01*
G37*
G36*
X236762049Y-37764866D02*
G01*
X236873234Y-37786982D01*
X237082703Y-37873747D01*
X237271220Y-37999710D01*
X237431540Y-38160030D01*
X237557503Y-38348547D01*
X237644268Y-38558016D01*
X237688500Y-38780386D01*
X237688500Y-39007114D01*
X237644268Y-39229484D01*
X237557503Y-39438953D01*
X237431540Y-39627470D01*
X237271220Y-39787790D01*
X237082703Y-39913753D01*
X236873234Y-40000518D01*
X236762049Y-40022634D01*
X236650865Y-40044750D01*
X236424135Y-40044750D01*
X236312951Y-40022634D01*
X236201766Y-40000518D01*
X235992297Y-39913753D01*
X235803780Y-39787790D01*
X235643460Y-39627470D01*
X235517497Y-39438953D01*
X235430732Y-39229484D01*
X235386500Y-39007114D01*
X235386500Y-38780386D01*
X235430732Y-38558016D01*
X235517497Y-38348547D01*
X235643460Y-38160030D01*
X235803780Y-37999710D01*
X235992297Y-37873747D01*
X236201766Y-37786982D01*
X236312951Y-37764866D01*
X236424135Y-37742750D01*
X236650865Y-37742750D01*
X236762049Y-37764866D01*
G37*
G36*
X150243299Y-37764866D02*
G01*
X150354484Y-37786982D01*
X150563953Y-37873747D01*
X150752470Y-37999710D01*
X150912790Y-38160030D01*
X151038753Y-38348547D01*
X151125518Y-38558016D01*
X151169750Y-38780386D01*
X151169750Y-39007114D01*
X151125518Y-39229484D01*
X151038753Y-39438953D01*
X150912790Y-39627470D01*
X150752470Y-39787790D01*
X150563953Y-39913753D01*
X150354484Y-40000518D01*
X150243299Y-40022634D01*
X150132115Y-40044750D01*
X149905385Y-40044750D01*
X149794201Y-40022634D01*
X149683016Y-40000518D01*
X149473547Y-39913753D01*
X149285030Y-39787790D01*
X149124710Y-39627470D01*
X148998747Y-39438953D01*
X148911982Y-39229484D01*
X148867750Y-39007114D01*
X148867750Y-38780386D01*
X148911982Y-38558016D01*
X148998747Y-38348547D01*
X149124710Y-38160030D01*
X149285030Y-37999710D01*
X149473547Y-37873747D01*
X149683016Y-37786982D01*
X149794201Y-37764866D01*
X149905385Y-37742750D01*
X150132115Y-37742750D01*
X150243299Y-37764866D01*
G37*
G36*
X139924549Y-37764866D02*
G01*
X140035734Y-37786982D01*
X140245203Y-37873747D01*
X140433720Y-37999710D01*
X140594040Y-38160030D01*
X140720003Y-38348547D01*
X140806768Y-38558016D01*
X140851000Y-38780386D01*
X140851000Y-39007114D01*
X140806768Y-39229484D01*
X140720003Y-39438953D01*
X140594040Y-39627470D01*
X140433720Y-39787790D01*
X140245203Y-39913753D01*
X140035734Y-40000518D01*
X139924549Y-40022634D01*
X139813365Y-40044750D01*
X139586635Y-40044750D01*
X139475451Y-40022634D01*
X139364266Y-40000518D01*
X139154797Y-39913753D01*
X138966280Y-39787790D01*
X138805960Y-39627470D01*
X138679997Y-39438953D01*
X138593232Y-39229484D01*
X138549000Y-39007114D01*
X138549000Y-38780386D01*
X138593232Y-38558016D01*
X138679997Y-38348547D01*
X138805960Y-38160030D01*
X138966280Y-37999710D01*
X139154797Y-37873747D01*
X139364266Y-37786982D01*
X139475451Y-37764866D01*
X139586635Y-37742750D01*
X139813365Y-37742750D01*
X139924549Y-37764866D01*
G37*
M02*
